<svg width="10" height="19" viewBox="0 0 10 19" fill="none" xmlns="http://www.w3.org/2000/svg">
<path d="M0.169533 18.7599C0.269595 18.8608 0.405566 18.9179 0.547656 18.9188C0.618174 18.9194 0.688084 18.9057 0.753103 18.8784C0.818122 18.8511 0.876881 18.8108 0.925779 18.7599L9.84192 9.84381C9.89199 9.79439 9.93175 9.73551 9.95889 9.6706C9.98603 9.60569 10 9.53604 10 9.46568C10 9.39533 9.98603 9.32568 9.95889 9.26077C9.93175 9.19586 9.89199 9.13698 9.84192 9.08756L0.925779 0.169533C0.876754 0.117125 0.817686 0.0751141 0.752092 0.0460019C0.686498 0.0168897 0.615718 0.00127067 0.543963 7.43534e-05C0.472209 -0.00112197 0.400947 0.0121289 0.334419 0.0390383C0.267891 0.0659477 0.207456 0.105966 0.15671 0.156711C0.105965 0.207456 0.0659476 0.267891 0.0390382 0.334419C0.0121288 0.400947 -0.00112197 0.472209 7.43539e-05 0.543963C0.00127067 0.615717 0.0168897 0.686498 0.0460019 0.752092C0.0751141 0.817686 0.117124 0.876754 0.169533 0.925779L8.70755 9.46568L0.169533 18.0037C0.119687 18.0532 0.0801291 18.1122 0.0531357 18.1771C0.0261424 18.2419 0.0122459 18.3115 0.0122459 18.3818C0.0122459 18.4521 0.0261424 18.5217 0.0531357 18.5866C0.0801291 18.6515 0.119687 18.7104 0.169533 18.7599Z" fill="black"/>
</svg>
