<svg width="20" height="20" viewBox="0 0 20 20" fill="none" xmlns="http://www.w3.org/2000/svg">
<g clip-path="url(#clip0_30_53)">
<path d="M9.99996 1.66675C5.39996 1.66675 1.66663 5.40008 1.66663 10.0001C1.66663 14.6001 5.39996 18.3334 9.99996 18.3334H14.1666V16.6667H9.99996C6.38329 16.6667 3.33329 13.6167 3.33329 10.0001C3.33329 6.38341 6.38329 3.33341 9.99996 3.33341C13.6166 3.33341 16.6666 6.38341 16.6666 10.0001V11.1917C16.6666 11.8501 16.075 12.5001 15.4166 12.5001C14.7583 12.5001 14.1666 11.8501 14.1666 11.1917V10.0001C14.1666 7.70008 12.3 5.83341 9.99996 5.83341C7.69996 5.83341 5.83329 7.70008 5.83329 10.0001C5.83329 12.3001 7.69996 14.1667 9.99996 14.1667C11.15 14.1667 12.2 13.7001 12.95 12.9417C13.4916 13.6834 14.425 14.1667 15.4166 14.1667C17.0583 14.1667 18.3333 12.8334 18.3333 11.1917V10.0001C18.3333 5.40008 14.6 1.66675 9.99996 1.66675ZM9.99996 12.5001C8.61663 12.5001 7.49996 11.3834 7.49996 10.0001C7.49996 8.61675 8.61663 7.50008 9.99996 7.50008C11.3833 7.50008 12.5 8.61675 12.5 10.0001C12.5 11.3834 11.3833 12.5001 9.99996 12.5001Z" fill="white"/>
</g>
<defs>
<clipPath id="clip0_30_53">
<rect width="20" height="20" fill="white"/>
</clipPath>
</defs>
</svg>
