<svg width="43" height="43" viewBox="0 0 43 43" fill="none" xmlns="http://www.w3.org/2000/svg">
<path d="M20.4838 8.26221C19.1535 10.2707 18.2667 12.4161 17.6755 14.6529C17.7247 14.6529 17.774 14.6985 17.8233 14.6985C18.8579 13.0096 19.8926 11.3662 20.9272 9.67728C20.9765 9.67728 21.0258 9.72293 21.0258 9.72293C20.5331 10.7272 19.9911 11.7314 19.4984 12.7357C18.7594 14.2877 18.316 15.8854 18.6608 17.5743C18.7101 17.8482 18.7101 18.0764 18.7594 18.3503C18.8579 18.8068 18.9565 19.2633 19.055 19.7197C19.2028 20.3588 19.3506 20.9979 19.4492 21.6369C19.6955 21.1348 19.6955 20.587 19.6462 20.0393C19.5477 19.2176 19.3999 18.3503 19.3999 17.5287C19.3999 16.9809 19.4984 16.3875 19.6955 15.8397C19.9418 14.8811 20.2867 13.9225 20.5824 13.0096C20.9272 11.8684 21.5677 10.8641 22.3068 9.85987C22.5531 9.49469 22.7502 9.03822 22.9966 8.62739C22.9473 8.76433 22.9473 8.90127 22.898 9.08387C22.9473 9.12951 22.9966 9.12951 23.0458 9.17516C23.982 7.98832 24.9181 6.80149 25.8542 5.6603C25.9527 5.70595 26.002 5.75159 26.1005 5.79724C25.263 6.84713 24.4254 7.85138 23.6371 8.90127C23.2429 9.44904 22.898 10.0425 22.6024 10.6815C22.159 11.5488 21.6663 12.4618 21.2721 13.3747C20.5824 14.9268 19.9911 16.4788 20.5824 18.2134C20.6316 18.396 20.7302 18.5329 20.7794 18.7155C20.8287 18.7155 20.878 18.7155 20.9272 18.7155C20.9272 18.259 20.9765 17.8025 20.9272 17.3917C20.7794 15.6115 21.2229 13.9225 22.1097 12.3705C22.4053 11.8684 22.7502 11.4575 23.2922 11.138C23.6371 10.9098 23.8834 10.4076 24.0312 9.95117C24.5239 8.58174 25.3615 7.44055 26.4454 6.43631C26.5932 6.29936 26.7903 6.20807 27.0367 6.16242C26.4947 7.21231 25.9527 8.21656 25.46 9.26645C25.5093 9.26645 25.5586 9.3121 25.5586 9.3121C25.8542 8.90127 26.1991 8.53609 26.4947 8.12527C27.5786 6.71019 28.6626 5.29512 29.7958 3.97134C30.3377 3.33227 31.0768 2.8758 31.7173 2.32803C31.7665 2.37367 31.8158 2.41932 31.8651 2.46497C31.668 2.69321 31.5202 2.92144 31.2738 3.05839C29.6479 4.33652 28.4162 5.84289 27.825 7.76009C27.6279 8.30786 27.4308 8.80998 27.3323 9.4034C27.8742 8.3535 28.4655 7.34926 29.0074 6.25372C29.5494 5.15817 30.5348 4.33652 31.3724 3.46921C31.7665 3.05839 32.2592 2.64756 32.7519 2.32803C31.668 3.05839 31.5202 4.33652 30.6826 5.38641C31.8158 4.88429 32.5056 4.06263 33.3924 3.28662C33.1954 3.56051 33.0968 3.7431 32.8997 4.01699C33.9344 3.37792 34.7227 2.55626 36.0037 2.51062C35.9052 2.64756 35.8559 2.7845 35.7081 2.8758C35.0183 3.42357 34.3778 3.92569 33.6881 4.47346C33.7373 4.51911 33.7373 4.56476 33.7866 4.6104C34.0822 4.42781 34.3778 4.29087 34.6734 4.10828C34.9691 3.92569 35.2647 3.69745 35.5603 3.51486C35.8559 3.33227 36.2008 3.10403 36.5457 2.96709C37.8267 2.46497 39.1077 2.00849 40.3887 1.46072C40.2902 1.55202 40.1916 1.64331 40.0931 1.73461L40.1424 1.78025C41.1278 1.18684 42.0639 0.593418 43 0C43 0.593418 42.3102 0.867303 41.9653 1.32378C41.5219 1.87155 41.0785 2.37367 40.6843 2.8758C40.2902 3.37792 39.9453 3.83439 39.6004 4.38217C38.9599 5.34076 38.1716 6.20807 37.3833 7.07537C36.9891 7.4862 36.7428 8.03397 36.3486 8.49045C35.6588 9.3121 34.9198 10.0881 34.23 10.8641C34.1807 10.9098 34.1315 10.9554 34.1315 11.0924C34.7227 10.6359 35.3139 10.1794 35.8559 9.72293C36.4471 9.22081 36.9891 8.76433 37.5311 8.21656C38.0238 7.66879 38.4672 7.07537 39.0092 6.5276C38.8614 7.3949 38.1223 7.98832 37.7282 8.71868C37.2847 9.49469 36.8413 10.2707 36.3486 11.0011C35.8559 11.7314 35.3632 12.4618 34.9198 13.2378C35.3139 12.8726 35.6588 12.4618 36.053 12.0966C36.1023 12.0966 36.1023 12.1423 36.1515 12.1423C35.9052 12.5074 35.6588 12.8726 35.3632 13.1921C34.7227 13.8769 34.0329 14.5616 33.3432 15.2463C33.3432 15.2919 33.3924 15.3376 33.3924 15.3376C34.0329 15.018 34.6734 14.6985 35.2647 14.3333C35.8559 13.9225 36.3486 13.4204 36.8413 13.0552C36.1515 13.9225 35.3632 14.9268 34.6242 15.8854C34.5749 15.8854 34.5749 15.8397 34.5256 15.8397C34.6242 15.7941 34.7227 15.7484 34.8705 15.7028C34.8705 15.7484 34.9198 15.7941 34.9198 15.8397C31.3724 19.1263 26.8889 20.4045 22.0112 20.7696C22.0112 20.8153 22.0112 20.8609 22.0112 20.9066C22.4053 20.8609 22.7995 20.8153 23.2429 20.7696C23.44 20.724 23.6863 20.6327 23.8834 20.6327C23.982 20.6327 24.0805 20.7696 24.179 20.8609C26.1991 20.9522 28.2191 20.6327 30.1899 19.9936C31.8651 19.4459 33.2939 18.5786 34.5749 17.4374C35.1661 16.8896 35.8559 16.5244 36.5457 16.0679C36.595 16.1136 36.595 16.1592 36.6442 16.2049C36.4964 16.3418 36.3486 16.5244 36.2008 16.6614C34.772 17.8025 33.4417 19.1263 31.7665 19.9936C30.0421 20.9066 28.1206 21.3631 26.1991 21.7282C25.3615 21.8652 24.4746 21.9108 23.6371 22.0021C23.1936 22.0478 22.7502 22.276 22.3068 22.276C21.5677 22.276 21.2229 22.7325 20.9765 23.2803C21.7648 23.189 22.5531 23.0977 23.3414 22.9607C23.9327 22.8694 24.4746 22.8238 25.0659 22.6868C25.3615 22.6412 25.6571 22.5499 25.9527 22.413C27.5294 21.8652 29.1553 21.4087 30.6333 20.7696C31.9636 20.2219 33.1461 19.4459 34.3778 18.7155C34.772 18.4873 35.0676 18.1221 35.4125 17.8025C35.4618 17.8482 35.511 17.8938 35.5603 17.8938C35.2647 18.2134 34.9691 18.5786 34.6242 18.8524C33.4417 19.7654 32.2592 20.6783 30.7319 21.1348C29.3031 21.5913 27.9235 22.1391 26.544 22.5955C26.1991 22.7325 25.8542 22.9151 25.5093 23.0064C24.7703 23.2346 24.0312 23.5085 23.2922 23.6454C21.4199 23.965 19.9911 24.741 18.9565 26.1561C19.597 25.8822 20.2375 25.517 20.9272 25.2887C22.1097 24.8779 23.3414 24.5127 24.5239 24.1019C25.3615 23.828 26.1991 23.5085 27.0367 23.189C28.1206 22.7781 29.2045 22.3673 30.2392 21.8652C30.8797 21.5456 31.4709 21.0892 32.0622 20.724C32.21 20.6327 32.407 20.5414 32.6041 20.4501C32.6534 20.4958 32.6534 20.5414 32.7027 20.587C32.1607 20.9522 31.668 21.3174 31.126 21.6826C29.7958 22.5955 28.5148 23.5998 26.9381 24.1476C25.6571 24.604 24.3761 24.9692 23.0951 25.38C22.2575 25.6539 21.4199 25.9735 20.5824 26.3386C21.7648 26.293 22.7995 25.9735 23.8834 25.6083C25.1152 25.1975 26.3962 24.7866 27.5786 24.2845C29.106 23.6454 30.6333 23.0064 32.1114 22.276C32.7519 21.9565 33.1954 21.3631 33.7373 20.9066C34.5256 20.2219 35.3139 19.5372 36.1515 18.8524C35.3139 20.3132 34.1807 21.4544 32.8012 22.3673C32.2592 22.7325 31.7665 23.189 31.0768 23.3715C30.7811 23.4628 30.5841 23.7824 30.3377 24.0106C29.5987 24.6953 28.8596 25.4257 28.1699 26.2017C28.7118 25.9278 29.3031 25.6539 29.845 25.3344C29.845 25.38 29.8943 25.38 29.8943 25.4257C29.5001 25.6996 29.1553 26.0191 28.7611 26.2473C27.7757 26.7038 27.0367 27.3885 26.2484 27.982C25.3615 28.621 24.4254 29.1231 23.2922 29.397C22.6517 29.5796 22.1097 29.8079 21.4199 29.8992C20.2867 30.0361 19.1535 30.3556 18.0203 30.6295C16.4437 30.9947 15.1627 31.9076 13.8324 32.7293C13.7339 32.7749 13.6353 32.9119 13.4875 32.9119C12.65 32.9119 12.2558 33.551 11.6646 33.9618C14.7685 32.9119 17.8725 32.0446 20.7302 30.5382C19.6462 31.3142 18.513 31.9989 17.232 32.4554C15.4583 33.0945 13.6353 33.7335 11.8124 34.3726C10.5806 34.7834 9.54597 35.4682 8.75766 36.4268C7.82154 37.5679 6.63907 38.4809 5.35806 39.2569C4.17559 40.0329 2.94386 40.7633 1.81066 41.5393C1.36723 41.8588 1.07161 42.3153 0.677456 42.6805C0.529648 42.8174 0.381839 42.9087 0.184761 43C0.135491 42.8174 0.0862217 42.6805 0.0369522 42.4979C-0.0123174 42.3153 -0.0123174 42.087 0.0369522 41.9045C0.0862217 41.7219 0.23403 41.5393 0.381839 41.4936C0.923804 41.2197 1.56431 40.9459 2.10627 40.672C3.87998 39.8047 5.30879 38.5722 6.63907 37.2484C7.42738 36.4724 8.36351 35.742 9.10255 34.9204C9.59524 34.3726 9.89086 33.6423 10.1865 32.9575C10.6299 32.0446 10.9748 31.086 11.3689 30.1274C11.5168 29.7166 11.6153 29.3514 11.7138 28.9406C11.9109 28.1645 12.108 27.3429 12.2558 26.5669C12.4529 25.5626 12.6992 24.5584 12.4529 23.5085C12.5514 23.7367 12.6007 23.965 12.7485 24.3301C12.8963 23.7824 13.0441 23.3715 13.1427 22.9607C13.1919 22.9607 13.1919 22.9607 13.2412 22.9607C13.2412 23.189 13.1919 23.4628 13.1919 23.6911C13.0934 25.0605 13.0934 26.4756 12.8963 27.845C12.6992 29.2601 12.3543 30.6752 12.108 31.9533C12.1573 31.9076 12.2558 31.7707 12.3543 31.5881C12.847 30.6295 13.4383 29.6709 13.7832 28.621C14.128 27.5711 14.2266 26.4756 14.3744 25.4257C14.4237 25.1062 14.3251 24.741 14.4729 24.4214C14.7685 23.5541 14.6207 22.6412 14.5222 21.7739C14.4237 20.8609 14.2759 19.948 14.3251 19.035C14.3744 18.3047 14.6207 17.62 14.7685 16.9352C14.8178 16.7527 14.8671 16.6157 14.8671 16.4331C14.8671 15.0637 15.3598 13.8312 15.8525 12.5531C16.0496 12.0053 16.4437 11.5488 16.8379 11.0924C16.5915 11.5032 16.2959 11.8684 16.1481 12.3248C15.8525 13.2378 15.7047 14.1507 15.4583 15.1093C15.0642 16.5701 15.4583 18.0308 15.4583 19.4915C15.4091 21.6826 15.3598 23.8737 15.0149 26.0648C14.9164 26.5669 14.9656 27.069 14.9164 27.5711C14.8671 28.1645 14.7193 28.8036 14.7193 29.397C14.8671 28.8493 15.0642 28.3015 15.1627 27.7081C15.4583 25.8822 15.7047 24.0106 15.951 22.1847C16.0496 21.3631 16.0496 20.4958 16.1481 19.6285C16.1974 19.172 16.3944 18.7155 16.493 18.259C16.5915 17.8482 16.5915 17.3917 16.6408 16.9809C16.8379 15.4745 17.2813 14.0138 18.0203 12.69C18.8087 11.2749 19.7448 9.90552 20.5824 8.49045C20.336 8.39915 20.3853 8.3535 20.4838 8.26221ZM26.3469 12.9183C26.002 13.3747 25.6571 13.6943 25.4108 14.1051C24.9673 14.8355 24.4254 15.5202 24.6225 16.4331C24.6225 16.5244 24.5732 16.6157 24.5239 16.6614C23.982 17.3917 23.4893 18.1221 22.9473 18.8524C23.1444 18.8068 23.2922 18.7155 23.44 18.5786C23.8834 18.1677 24.3268 17.6656 24.8195 17.2548C25.3615 16.7983 25.9527 16.4331 26.544 16.0223C26.9381 15.7484 27.3323 15.4745 27.7757 15.155C27.5786 15.1093 27.4801 15.1093 27.4308 15.0637C27.6772 14.7898 28.0713 14.5616 28.0713 14.2877C28.1206 13.8769 28.4162 13.7399 28.6626 13.5117C28.7611 13.4204 28.8104 13.3747 28.9089 13.2834C28.9089 13.2378 28.8596 13.1921 28.8596 13.1921C28.6626 13.2378 28.5147 13.2834 28.3177 13.3291C28.2684 13.3291 28.2684 13.2834 28.2191 13.2834C28.7118 12.7357 29.2538 12.1879 29.7958 11.6401C29.6972 11.6401 29.5987 11.5945 29.5001 11.5945C29.9928 10.9554 30.4855 10.3163 30.9782 9.72293C30.929 9.67728 30.8797 9.63163 30.8304 9.58599C30.1406 10.2251 29.4016 10.8185 28.7118 11.4575C28.7118 11.3662 28.6626 11.2749 28.6133 11.0467C28.2684 11.5945 27.9728 12.0053 27.6772 12.4618C27.6772 12.2335 27.6772 12.0966 27.6772 12.0053C27.6279 12.0053 27.6279 12.0053 27.5786 12.0053C27.283 12.5531 26.9874 13.1008 26.6425 13.6943C26.4947 13.2834 26.4454 13.1465 26.3469 12.9183ZM15.4583 30.2187C16.0496 29.8991 16.5423 29.5796 17.0349 29.397C18.2667 29.0775 19.5477 28.8493 20.7794 28.5297C21.8634 28.2558 23.0458 28.0276 24.0312 27.5711C25.3122 26.9777 26.4454 26.0648 27.4308 25.1062C27.5294 25.0149 27.6279 24.9236 27.7264 24.7866C27.6772 24.741 27.6772 24.6953 27.6279 24.6953C27.0859 24.9236 26.544 25.1975 25.9527 25.38C23.8834 26.1104 21.8634 26.7951 19.794 27.4798C19.6462 27.5255 19.4984 27.5711 19.3506 27.6624C18.513 28.0732 17.6754 28.4841 16.8379 28.8949C16.2959 29.1688 15.8032 29.5796 15.4583 30.2187ZM17.1828 25.6996C17.232 25.6996 17.232 25.7452 17.2813 25.7452C17.4784 25.4257 17.774 25.1518 17.8233 24.7866C18.0203 23.5998 18.3652 22.4586 18.2174 21.2261C18.1189 20.5414 18.316 19.8567 18.2174 19.2176C17.9711 17.483 17.774 15.7484 18.4145 14.0138C18.2667 14.1964 18.1681 14.4246 18.0203 14.6529C16.8379 16.4331 16.8871 18.3503 17.5769 20.2675C17.6262 20.4501 17.7247 20.6783 17.6755 20.8609C17.6262 21.7282 17.6262 22.5955 17.5276 23.5085C17.4291 24.2389 17.2813 24.9692 17.1828 25.6996ZM15.3105 28.0732C15.3598 28.0732 15.3598 28.0732 15.4091 28.1189C15.4583 28.0276 15.6061 27.9363 15.6061 27.7994C15.8525 26.7951 16.1481 25.7909 16.3944 24.7866C16.493 24.2845 16.5423 23.7367 16.6901 23.2346C17.1828 21.6826 16.7886 20.1762 16.3944 18.6699C16.2959 18.8981 16.2466 19.172 16.2959 19.4002C16.3452 20.0849 16.493 20.7696 16.493 21.4087C16.3944 23.3259 16.2466 25.1975 15.6554 27.069C15.5076 27.4342 15.4091 27.7537 15.3105 28.0732ZM40.6351 1.9172C40.3394 2.00849 40.0931 1.96284 39.9946 2.09979C39.5019 2.64756 39.0092 3.19533 38.5165 3.78875C37.9252 4.51911 37.3833 5.34076 36.7428 6.07113C36.1515 6.71019 35.511 7.30361 34.8705 7.94268C37.0877 6.16242 39.1077 4.33652 40.6351 1.9172ZM16.5423 30.1274C17.8233 29.8079 19.0057 29.4883 20.1882 29.2144C18.8086 29.2601 17.232 29.4883 16.5423 30.1274ZM24.8195 27.8907C23.8834 28.3015 22.9966 28.6667 22.0604 29.0775C23.0458 28.8036 24.1298 28.758 24.8195 27.8907ZM29.3031 18.4416C29.3523 18.5329 29.3523 18.5786 29.4016 18.6699C30.1899 18.259 31.0275 17.8482 31.8158 17.4374C31.7665 17.3917 31.7665 17.3461 31.7173 17.3004C30.929 17.6656 30.1406 18.0764 29.3031 18.4416ZM11.566 30.6752C11.5168 30.6752 11.4675 30.6295 11.3689 30.6295C11.0733 31.3599 10.7777 32.0902 10.4821 32.8206C10.5314 32.8206 10.5806 32.8662 10.6299 32.8662C10.9748 32.1359 11.2704 31.4055 11.566 30.6752ZM31.4217 15.6571C32.2592 15.5658 32.7027 14.9724 33.1954 14.4246C32.6041 14.8355 32.0129 15.2463 31.4217 15.6571ZM14.67 19.9023C14.7193 19.9023 14.7685 19.9023 14.8178 19.9023C14.8178 19.2176 14.7685 18.5329 14.7685 17.8482C14.7193 17.8482 14.67 17.8482 14.6207 17.8482C14.6207 18.5329 14.6207 19.2176 14.67 19.9023ZM23.0951 12.2335C22.7502 12.7813 22.5039 13.3747 22.5531 14.0138C22.6024 14.0138 22.6517 14.0138 22.7009 14.0594C22.8488 13.4204 22.9966 12.827 23.0951 12.2335Z" fill="#212529"/>
</svg>
