<svg width="44" height="44" viewBox="0 0 44 44" fill="none" xmlns="http://www.w3.org/2000/svg">
<path fill-rule="evenodd" clip-rule="evenodd" d="M24.8138 23.6957L24.3315 17.97L23.8492 23.7397C22.9381 29.025 23.0989 29.5095 16.5605 29.9499L9.21826 30.3904L16.4533 30.8308C22.8309 31.5796 23.3132 31.5355 23.7956 36.8208L24.3851 42.8548L24.921 36.9089C25.7785 31.6677 25.6177 31.2713 32.0489 30.8749L39.4447 30.3904L31.9953 29.9059C25.457 29.1131 25.2426 29.0691 24.8138 23.6957Z" fill="#212529"/>
<path fill-rule="evenodd" clip-rule="evenodd" d="M10.7186 24.4886L11.1474 28.937L11.5761 24.5767C12.2728 20.7449 12.1656 20.4366 16.8818 20.1282L22.2947 19.7759L16.8282 19.4235C12.0048 18.851 11.8977 18.8069 11.5225 14.843L11.1474 10.6147L10.7722 14.887C10.1291 18.7629 10.1827 19.1593 5.4129 19.4235L0 19.7759L5.30571 20.0842C10.0219 20.6568 10.3971 20.6127 10.7186 24.4886Z" fill="#212529"/>
<path fill-rule="evenodd" clip-rule="evenodd" d="M32.0486 12.4645L32.4238 16.4725L32.7989 12.5525C33.442 9.07306 33.3348 8.8088 37.5687 8.54454L42.4457 8.23623L37.5151 7.92792C33.1741 7.39939 33.0669 7.35535 32.7453 3.83183L32.4238 0L32.1022 3.83183C31.5127 7.3113 31.5663 7.66366 27.2788 7.92792L22.4019 8.23623L27.1716 8.54454C31.4055 9.02902 31.727 8.98497 32.0486 12.4645Z" fill="#212529"/>
<path fill-rule="evenodd" clip-rule="evenodd" d="M42.0705 24.3562C41.5346 24.3121 41.481 24.2681 41.4274 23.8276L41.1594 22.198L40.7843 23.8276C40.7307 24.2681 40.6235 24.3121 40.0876 24.3562L38.1582 24.5764L40.1411 24.7966C40.7307 24.8847 40.7307 24.9287 40.8379 25.3692L41.1058 26.9547L41.3738 25.3251C41.4274 24.8847 41.481 24.8406 41.9633 24.7966L43.9998 24.5323L42.0705 24.3562Z" fill="#212529"/>
<path fill-rule="evenodd" clip-rule="evenodd" d="M35.5858 40.873L35.3179 39.2434L35.0499 40.873C34.9963 41.3135 34.8891 41.3575 34.3532 41.4016L32.4238 41.6218L34.4068 41.842C34.9963 41.9301 34.9963 41.9741 35.1035 42.4146L35.3714 44.0002L35.6394 42.3705C35.693 41.9301 35.7466 41.886 36.2289 41.842L38.2655 41.5777L36.2289 41.4016C35.7466 41.3135 35.693 41.3135 35.5858 40.873Z" fill="#212529"/>
<path fill-rule="evenodd" clip-rule="evenodd" d="M13.1842 4.66858L13.4521 6.25416L13.7201 4.62454C13.7737 4.1841 13.8273 4.14005 14.3096 4.09601L16.3462 3.83174L14.3632 3.61152C13.8273 3.56748 13.7737 3.52344 13.7201 3.083L13.4521 1.45337L13.1842 3.083C13.1306 3.52344 13.0234 3.56748 12.4875 3.61152L10.5581 3.83174L12.541 4.05196C13.077 4.1841 13.1306 4.22814 13.1842 4.66858Z" fill="#212529"/>
</svg>
