<svg width="79" height="39" viewBox="0 0 79 39" fill="none" xmlns="http://www.w3.org/2000/svg">
<path d="M36.4189 3.12803C36.5869 2.98103 36.7419 2.82103 36.9229 2.68503C37.1089 2.55203 37.3169 2.46403 37.5079 2.35503C37.6029 2.30103 37.6959 2.24303 37.7749 2.17403C37.8129 2.14003 37.8499 2.10103 37.8739 2.06303C37.8969 2.02403 37.9139 1.97603 37.9289 1.92403C37.9449 1.87203 37.9589 1.81603 37.9839 1.75803C38.0089 1.69803 38.0439 1.64603 38.0819 1.59803C38.1589 1.50203 38.2529 1.43003 38.3259 1.35703C38.3449 1.33903 38.3619 1.32003 38.3789 1.30103L38.4319 1.23903L38.5389 1.11003C38.6119 1.02303 38.6969 0.93303 38.7979 0.86203C38.8969 0.79003 39.0099 0.736031 39.1229 0.695031C39.2369 0.658031 39.3529 0.62903 39.4699 0.61203C39.5869 0.59603 39.7049 0.586032 39.8249 0.589032C39.9439 0.589032 40.0639 0.60403 40.1829 0.62603C40.3019 0.65203 40.4209 0.690031 40.5359 0.747031C40.6499 0.808031 40.7589 0.889031 40.8469 0.999031L40.7099 0.934031C40.8609 0.930031 41.0169 0.929032 41.1729 0.974032C41.3269 1.01403 41.4829 1.08603 41.6069 1.19203C41.7329 1.29603 41.8329 1.42003 41.9159 1.54603C41.9989 1.67303 42.0649 1.80103 42.1289 1.92603C42.1929 2.05203 42.2519 2.17303 42.3159 2.28703C42.3319 2.31503 42.3479 2.34503 42.3639 2.37103C42.3799 2.39603 42.3949 2.42203 42.4129 2.44703C42.4469 2.49703 42.4859 2.54503 42.5259 2.59403C42.6889 2.78703 42.9009 2.96803 43.0929 3.20603C43.1399 3.26503 43.1879 3.33103 43.2299 3.40003C43.2729 3.46803 43.3079 3.54003 43.3409 3.61103C43.4049 3.75403 43.4489 3.89803 43.4889 4.03103C43.5289 4.16303 43.5659 4.28603 43.6139 4.39203C43.6369 4.44603 43.6649 4.49403 43.6919 4.53903C43.7219 4.58403 43.7569 4.63003 43.7959 4.67503C43.9529 4.85803 44.1709 5.03603 44.3719 5.26903C44.4729 5.38503 44.5679 5.52103 44.6419 5.65503C44.7169 5.79003 44.7779 5.92603 44.8339 6.05503C44.8899 6.18403 44.9419 6.30603 44.9979 6.41703C45.0259 6.47203 45.0549 6.52503 45.0859 6.57403L45.1089 6.61103L45.1359 6.65103L45.1919 6.73103C45.3409 6.94503 45.5079 7.14703 45.6869 7.35903C45.8639 7.56903 46.0559 7.79803 46.2139 8.07003C46.2559 8.13603 46.2879 8.21003 46.3239 8.28103C46.3579 8.35303 46.3849 8.42903 46.4149 8.50403C46.4379 8.58103 46.4639 8.65703 46.4819 8.73503C46.4969 8.81303 46.5179 8.89103 46.5279 8.96803C46.5369 9.04503 46.5499 9.12403 46.5549 9.20003L46.5649 9.43003C46.5669 9.56303 46.5689 9.70003 46.5809 9.80903L46.5859 9.84803C46.5869 9.86103 46.5899 9.86903 46.5919 9.88003C46.5949 9.90403 46.6009 9.91203 46.6039 9.92603C46.6119 9.94103 46.6099 9.93803 46.6339 9.96303C46.6439 9.97303 46.6659 9.99203 46.6849 10.008L46.7589 10.067C46.8129 10.109 46.8699 10.155 46.9269 10.202C46.9839 10.249 47.0399 10.298 47.0949 10.347C47.1209 10.369 47.1559 10.404 47.1859 10.433C47.2159 10.464 47.2449 10.495 47.2719 10.526C47.3809 10.651 47.4699 10.779 47.5509 10.905C47.7119 11.157 47.8409 11.405 47.9749 11.614L47.4669 11.475C47.5649 11.425 47.6719 11.38 47.7909 11.348C47.9099 11.317 48.0429 11.3 48.1829 11.311C48.3219 11.322 48.4659 11.364 48.5879 11.433C48.7109 11.501 48.8139 11.589 48.8969 11.683C49.0619 11.871 49.1569 12.074 49.2279 12.27C49.2969 12.468 49.3389 12.664 49.3659 12.86L48.5659 13.031C48.5149 12.868 48.5059 12.689 48.5319 12.529C48.5569 12.367 48.6129 12.225 48.6789 12.1C48.8139 11.849 48.9889 11.659 49.1739 11.493C49.3599 11.328 49.5599 11.19 49.7779 11.073C49.8879 11.015 50.0019 10.962 50.1279 10.917C50.1609 10.906 50.1919 10.895 50.2259 10.886L50.2769 10.872L50.3249 10.862C50.3889 10.849 50.4519 10.834 50.5179 10.824C50.5859 10.817 50.6539 10.81 50.7229 10.805C50.7949 10.806 50.8669 10.807 50.9399 10.812L51.0509 10.829C51.0879 10.836 51.1249 10.84 51.1619 10.852C51.2349 10.875 51.3099 10.893 51.3779 10.928L51.4809 10.977C51.5129 10.995 51.5439 11.015 51.5759 11.035C51.6409 11.073 51.6939 11.118 51.7499 11.162C51.7789 11.184 51.8019 11.207 51.8259 11.23L51.8989 11.299C51.9419 11.345 51.9859 11.393 52.0259 11.439C52.1839 11.626 52.3079 11.807 52.4299 11.973C52.5499 12.139 52.6679 12.286 52.8029 12.437C53.0679 12.737 53.376 13.032 53.674 13.367C53.823 13.535 53.9689 13.711 54.1039 13.905C54.2419 14.102 54.3599 14.308 54.4619 14.514C54.6649 14.928 54.8079 15.342 54.9619 15.722C55.0389 15.912 55.1179 16.095 55.2059 16.266C55.2279 16.309 55.2499 16.353 55.2719 16.388L55.3039 16.444L55.341 16.5L55.3779 16.556L55.4189 16.612C55.4449 16.649 55.4749 16.687 55.5039 16.724C55.7409 17.024 56.0409 17.316 56.3399 17.641C56.4899 17.804 56.6389 17.978 56.7799 18.171C56.8499 18.266 56.9069 18.351 56.9669 18.434C57.0259 18.516 57.0829 18.593 57.1399 18.663C57.2539 18.802 57.3699 18.908 57.4729 18.96C57.4859 18.966 57.4989 18.974 57.5109 18.978L57.5299 18.985L57.5389 18.989L57.5529 18.993C57.5929 19.004 57.6319 19.019 57.6719 19.027C57.7519 19.047 57.8319 19.059 57.9189 19.068C58.0079 19.076 58.1049 19.079 58.2259 19.086C58.3479 19.094 58.5009 19.113 58.6529 19.164C58.7299 19.187 58.8009 19.223 58.8729 19.258C58.9369 19.297 59.0069 19.336 59.0609 19.38L59.146 19.446L59.2199 19.514C59.2439 19.537 59.2709 19.559 59.2919 19.582L59.3569 19.651C59.3779 19.674 59.4009 19.698 59.4199 19.72L59.4749 19.785C59.5109 19.828 59.5489 19.871 59.5839 19.915C59.6539 20.003 59.7239 20.09 59.7909 20.179C59.9259 20.356 60.052 20.537 60.174 20.717C60.419 21.079 60.6449 21.442 60.8719 21.797C60.9859 21.974 61.0989 22.15 61.2149 22.321C61.2729 22.407 61.3309 22.492 61.3909 22.575L61.4799 22.7L61.5329 22.775C61.5519 22.802 61.5669 22.826 61.5839 22.852C61.7119 23.053 61.8129 23.241 61.9169 23.423C61.9679 23.513 62.0189 23.602 62.0699 23.683C62.1189 23.762 62.1729 23.842 62.2009 23.867C62.2699 23.941 62.3869 24.001 62.5479 24.038C62.6259 24.058 62.7159 24.069 62.8059 24.079C62.8989 24.087 62.9939 24.094 63.0949 24.095C63.1939 24.098 63.2969 24.098 63.4029 24.098H63.7139C63.9109 24.095 64.1209 24.082 64.3389 24.072C64.5579 24.063 64.7849 24.057 65.0259 24.076L65.1169 24.084L65.2089 24.096C65.2389 24.099 65.2709 24.106 65.3019 24.111L65.3489 24.119L65.4069 24.132C65.5609 24.169 65.6989 24.24 65.7939 24.292C65.8419 24.318 65.8819 24.34 65.9159 24.356C65.9329 24.364 65.9489 24.371 65.9639 24.377C65.9809 24.383 65.9879 24.387 66.0139 24.394C66.1009 24.422 66.1939 24.446 66.2909 24.468C66.4839 24.513 66.6909 24.549 66.9039 24.592C67.1169 24.635 67.3399 24.684 67.5669 24.758C67.6239 24.776 67.6819 24.799 67.7389 24.82C67.7969 24.845 67.8539 24.867 67.9119 24.897C67.9409 24.912 67.9689 24.925 67.9979 24.941L68.0849 24.994C68.1149 25.011 68.1419 25.031 68.1689 25.051C68.1959 25.071 68.2249 25.09 68.2499 25.112C68.3549 25.196 68.4439 25.29 68.5249 25.383C68.6049 25.476 68.6709 25.566 68.7359 25.651C68.8619 25.82 68.9719 25.956 69.0979 26.054L69.146 26.09C69.162 26.102 69.1799 26.111 69.1959 26.122C69.2249 26.142 69.2749 26.168 69.3159 26.191C69.4029 26.238 69.4929 26.283 69.5849 26.327C69.7689 26.415 69.9609 26.498 70.1589 26.587C70.3559 26.677 70.5589 26.771 70.7579 26.886C70.8569 26.944 70.9569 27.004 71.0519 27.072C71.1009 27.104 71.1459 27.143 71.1929 27.179C71.2389 27.216 71.2859 27.252 71.3299 27.29C71.6789 27.598 71.9559 27.95 72.2099 28.308C72.4619 28.667 72.6869 29.038 72.8999 29.412C73.1129 29.785 73.3139 30.163 73.5159 30.535L73.6679 30.813C73.7199 30.904 73.7689 30.995 73.8229 31.087L74.1429 31.634C75.0039 33.091 75.9539 34.508 76.7789 36.001L76.7139 35.955C76.7239 35.958 76.7349 35.961 76.7449 35.965C76.7569 35.97 76.7589 35.973 76.7669 35.977C76.7809 35.986 76.7889 35.993 76.7969 36C76.8139 36.015 76.8259 36.029 76.8379 36.043C76.8609 36.071 76.8799 36.098 76.8979 36.125C76.9329 36.179 76.9649 36.234 76.9949 36.288C77.0549 36.397 77.1109 36.506 77.1659 36.616L77.3299 36.943C77.3859 37.052 77.4399 37.158 77.5059 37.257C77.7679 37.662 78.1259 38.006 78.4159 38.4C78.0959 38.031 77.7199 37.715 77.4209 37.316C77.3449 37.217 77.2799 37.109 77.2169 37.004L77.0319 36.687C76.9709 36.581 76.9099 36.476 76.8459 36.375C76.8139 36.324 76.7809 36.275 76.7469 36.228C76.7299 36.205 76.7129 36.183 76.6959 36.165C76.6879 36.156 76.6789 36.148 76.6729 36.143C76.6699 36.141 76.6669 36.139 76.6669 36.139C76.6639 36.137 76.6709 36.143 76.6779 36.143L76.6159 36.1C75.7059 34.669 74.7019 33.301 73.7619 31.873C73.6449 31.695 73.5299 31.514 73.4159 31.333C73.3589 31.243 73.3029 31.15 73.2459 31.058L73.0819 30.782C72.8649 30.415 72.6519 30.049 72.4309 29.693C72.2089 29.336 71.9799 28.988 71.7309 28.66C71.4829 28.333 71.2129 28.027 70.9179 27.779C70.6279 27.537 70.2769 27.369 69.8909 27.21C69.6989 27.13 69.4979 27.051 69.2959 26.961C69.1949 26.916 69.0929 26.869 68.9919 26.818C68.9399 26.791 68.8939 26.77 68.8339 26.732C68.8059 26.715 68.7759 26.699 68.7489 26.68L68.6679 26.622C68.4539 26.463 68.2939 26.265 68.1619 26.098C68.0959 26.015 68.0339 25.936 67.9729 25.869C67.9119 25.803 67.8529 25.744 67.7899 25.697C67.7749 25.684 67.7579 25.675 67.7429 25.663C67.7269 25.652 67.7119 25.64 67.6939 25.632L67.6439 25.603C67.6259 25.594 67.6059 25.585 67.5879 25.576C67.5519 25.557 67.5079 25.543 67.4689 25.526C67.4259 25.512 67.3849 25.496 67.3399 25.483C67.1619 25.43 66.9679 25.39 66.7639 25.355C66.5599 25.318 66.3469 25.286 66.1249 25.239C66.0139 25.215 65.901 25.189 65.785 25.154C65.76 25.147 65.7169 25.133 65.6839 25.121C65.6489 25.108 65.6159 25.094 65.5849 25.08C65.5229 25.052 65.4689 25.023 65.4229 24.999C65.3309 24.951 65.2759 24.928 65.2229 24.916L65.2029 24.912L65.1699 24.91C65.1489 24.907 65.1279 24.903 65.1059 24.901L65.0399 24.894L64.9719 24.889C64.7889 24.878 64.5909 24.885 64.3849 24.898C64.1789 24.911 63.9649 24.929 63.7369 24.936L63.4109 24.941C63.3039 24.942 63.1939 24.944 63.0809 24.942C62.9689 24.941 62.8519 24.935 62.7329 24.927C62.6119 24.915 62.4899 24.901 62.3619 24.872C62.2339 24.842 62.1019 24.805 61.9679 24.739C61.8359 24.674 61.7009 24.59 61.5889 24.473C61.5589 24.446 61.534 24.414 61.507 24.384C61.484 24.355 61.4629 24.328 61.4429 24.301L61.3889 24.223L61.3399 24.148C61.2769 24.049 61.2209 23.955 61.1659 23.861C61.0569 23.675 60.9529 23.491 60.8499 23.335C60.8369 23.317 60.8239 23.296 60.8119 23.28L60.7719 23.225L60.6749 23.091C60.6109 23.002 60.5479 22.912 60.4859 22.822C60.3619 22.642 60.2439 22.462 60.1259 22.282C59.8919 21.923 59.6659 21.567 59.4319 21.227C59.3149 21.056 59.1959 20.89 59.0719 20.73C59.0109 20.649 58.9469 20.571 58.8839 20.494C58.8519 20.455 58.8189 20.418 58.7869 20.38L58.7379 20.323C58.7219 20.305 58.7079 20.291 58.6929 20.275L58.6489 20.228C58.6339 20.212 58.6199 20.201 58.6049 20.187L58.5619 20.147L58.5199 20.116C58.4919 20.091 58.4669 20.082 58.4409 20.064C58.4159 20.054 58.3929 20.04 58.3679 20.034C58.3179 20.018 58.2599 20.007 58.1689 20.002C58.0779 19.997 57.9629 19.993 57.8399 19.983C57.7159 19.972 57.5849 19.952 57.4579 19.921C57.3939 19.907 57.333 19.886 57.271 19.868L57.2469 19.861L57.2189 19.851L57.1639 19.83C57.1259 19.816 57.0929 19.798 57.0579 19.781C56.9199 19.711 56.8019 19.624 56.6999 19.533C56.5979 19.442 56.5109 19.346 56.4319 19.252C56.3539 19.157 56.2839 19.064 56.2189 18.973C56.1549 18.884 56.0929 18.792 56.0359 18.717C55.9259 18.566 55.797 18.418 55.66 18.267C55.386 17.965 55.0739 17.664 54.7829 17.297C54.7469 17.251 54.7109 17.205 54.6759 17.155L54.6229 17.082L54.5719 17.005L54.5219 16.927L54.4749 16.845C54.4419 16.789 54.4169 16.738 54.3899 16.686C54.2849 16.479 54.1959 16.27 54.1139 16.067C53.9509 15.659 53.8139 15.268 53.6449 14.918C53.5609 14.743 53.4679 14.578 53.3629 14.427C53.2559 14.271 53.1329 14.118 53.0009 13.967C52.7369 13.664 52.4319 13.368 52.1369 13.029C51.9899 12.862 51.8439 12.675 51.7159 12.496C51.5879 12.318 51.4719 12.147 51.3579 12.008C51.2429 11.867 51.1319 11.774 51.0249 11.724C50.9989 11.707 50.9689 11.704 50.9419 11.693C50.9289 11.686 50.9119 11.687 50.8969 11.683C50.8819 11.68 50.8659 11.678 50.8509 11.674C50.8179 11.672 50.7829 11.672 50.7499 11.669C50.7129 11.672 50.6749 11.676 50.6379 11.678C50.5989 11.683 50.5579 11.694 50.5179 11.7L50.4879 11.705L50.4619 11.712C50.4449 11.716 50.4259 11.723 50.4079 11.728C50.3339 11.753 50.2539 11.788 50.1749 11.828C50.0179 11.909 49.8639 12.012 49.7309 12.127C49.5979 12.242 49.4829 12.372 49.4139 12.495C49.3789 12.556 49.3569 12.615 49.3489 12.663C49.3409 12.712 49.3419 12.751 49.3519 12.792L48.5519 12.963C48.5339 12.813 48.5049 12.667 48.4609 12.534C48.4179 12.403 48.3579 12.285 48.2939 12.21C48.2619 12.172 48.2299 12.146 48.2019 12.129C48.1729 12.111 48.1459 12.103 48.1119 12.099C48.0449 12.09 47.9379 12.113 47.8229 12.17L47.4989 12.33L47.3149 12.031C47.1559 11.772 47.0369 11.525 46.9039 11.309C46.8379 11.201 46.7709 11.101 46.7009 11.016C46.6829 10.995 46.6659 10.975 46.6479 10.956C46.6289 10.937 46.6159 10.922 46.5899 10.898C46.5429 10.854 46.4959 10.811 46.4479 10.769C46.3989 10.727 46.3499 10.685 46.2959 10.641L46.2099 10.569C46.1769 10.54 46.1469 10.514 46.1089 10.474L46.0819 10.446L46.0539 10.411C46.0349 10.387 46.0169 10.365 45.9999 10.336C45.9639 10.281 45.9389 10.223 45.9169 10.165C45.9009 10.112 45.8849 10.055 45.8789 10.01C45.8749 9.98703 45.8699 9.96103 45.8679 9.94003L45.8619 9.87603C45.8489 9.71003 45.8519 9.57003 45.8529 9.42703L45.8489 9.24303C45.8469 9.18203 45.8379 9.12403 45.8339 9.06303C45.8279 9.00303 45.8139 8.94703 45.8049 8.88903C45.7929 8.83203 45.7749 8.77703 45.7619 8.72103C45.7409 8.66703 45.7239 8.61203 45.7009 8.55903C45.6749 8.50603 45.6549 8.45203 45.6239 8.40103C45.5109 8.19103 45.3539 7.98703 45.1809 7.77103C45.0099 7.55503 44.8309 7.32703 44.6709 7.08203L44.6119 6.99003L44.5819 6.94303L44.5519 6.89103C44.5119 6.82103 44.4769 6.75203 44.4449 6.68203C44.3819 6.54403 44.3309 6.41003 44.2809 6.28303C44.2319 6.15703 44.1829 6.03903 44.1279 5.93003C44.0719 5.82103 44.0119 5.72703 43.9349 5.63103C43.7829 5.43803 43.5759 5.25703 43.3799 5.01503C43.3309 4.95403 43.2839 4.88803 43.2409 4.81603C43.1979 4.74203 43.1609 4.66803 43.1319 4.59403C43.0719 4.44503 43.0349 4.30103 42.9999 4.16803C42.9649 4.03503 42.9319 3.91303 42.8869 3.80203C42.8639 3.74703 42.8409 3.69303 42.8109 3.64403C42.7829 3.59303 42.7509 3.54703 42.7149 3.49603C42.5669 3.29703 42.3659 3.10703 42.1819 2.86903C42.1359 2.80903 42.0919 2.74803 42.0509 2.68103C42.0299 2.64903 42.0109 2.61403 41.9919 2.58003C41.9739 2.54603 41.9589 2.51403 41.9419 2.48203C41.8779 2.35203 41.8209 2.22203 41.7659 2.09903C41.7099 1.97603 41.6549 1.85503 41.5909 1.74803C41.5269 1.64103 41.4549 1.54503 41.3709 1.46803C41.2049 1.31403 40.9729 1.25503 40.7219 1.25703L40.6339 1.25803L40.5849 1.19203C40.5359 1.12503 40.4669 1.06703 40.3869 1.01803C40.3039 0.97203 40.2119 0.936031 40.1139 0.910031C39.9179 0.860031 39.7049 0.845031 39.4969 0.864031C39.3929 0.873031 39.2899 0.893031 39.1909 0.919031C39.0929 0.949031 39.0009 0.986031 38.9159 1.04103C38.8309 1.09403 38.7569 1.16303 38.6819 1.24203L38.5679 1.36403L38.5079 1.42603C38.4869 1.44703 38.4649 1.46803 38.4429 1.48703C38.3539 1.56503 38.2649 1.62603 38.1989 1.70103C38.1659 1.73903 38.1359 1.77803 38.1149 1.82003C38.0929 1.86403 38.0759 1.91503 38.0559 1.96803C38.0359 2.02103 38.0139 2.07903 37.9759 2.13303C37.9359 2.18703 37.8919 2.22603 37.8449 2.26303C37.7509 2.33503 37.6489 2.38803 37.5479 2.43803C37.3449 2.53703 37.1339 2.61003 36.9479 2.72603C36.7659 2.84603 36.5969 2.99303 36.4189 3.12803Z" fill="black"/>
<path d="M78.4182 38.403C72.0172 38.51 65.6152 38.577 59.2142 38.63C56.0132 38.66 52.8122 38.676 49.6122 38.698L40.0102 38.743L30.4082 38.766L25.6072 38.768L20.8062 38.765C14.4042 38.758 7.9562 38.6 1.5542 38.537C7.9562 38.429 14.4042 38.498 20.8052 38.445L25.6062 38.408L30.4072 38.377L40.0092 38.332L49.6112 38.309C52.8122 38.309 56.0132 38.302 59.2132 38.309C65.6152 38.32 72.0162 38.341 78.4182 38.403Z" fill="black"/>
<path d="M39.6759 0.619951C39.5889 1.19195 38.1909 2.05695 37.9359 2.57695C37.5619 3.33995 37.8589 4.26295 38.2929 4.99395C38.7269 5.72495 39.3009 6.39395 39.5249 7.21395C39.6289 7.59295 39.6229 8.06495 39.3089 8.30095C39.1209 8.44295 38.8679 8.46095 38.6329 8.45795C37.9279 8.44995 37.1919 8.30795 36.5389 8.57395C36.0799 8.76095 35.7219 9.12795 35.3489 9.45395C34.9139 9.83495 34.4399 10.1709 33.9379 10.4579C33.5799 10.6619 33.1979 10.848 32.9339 11.164C32.5429 11.633 32.4909 12.3279 32.7179 12.8959C32.9439 13.4629 33.4129 13.9089 33.9439 14.2099C34.1639 14.3339 34.3959 14.438 34.6049 14.581C34.9819 14.841 35.2609 15.22 35.4929 15.616C36.0319 16.539 36.3489 17.591 36.4069 18.658C36.5039 20.423 36.3979 22.1639 35.9089 23.8619C35.4199 25.5599 34.5129 27.173 33.1439 28.291C32.3819 28.913 31.5009 29.3659 30.6329 29.8279C28.6559 30.8789 26.6959 32.01 25.0499 33.527C24.6609 33.886 24.2789 34.2729 23.7949 34.4879C23.6329 34.5599 23.4579 34.6149 23.3299 34.7369C22.9279 35.1249 23.2659 35.865 22.9559 36.33C22.9959 37.164 22.9909 37.706 22.9459 38.54L9.29289 38.6259L0.462891 38.6409C0.605891 38.2599 0.692891 38.128 0.870891 37.763C0.952891 37.595 1.04089 37.426 1.16889 37.289C1.39589 37.045 1.73589 36.9119 1.91289 36.6299C2.02289 36.4539 2.05489 36.2419 2.12989 36.0479C2.21289 35.8329 2.34789 35.6419 2.48189 35.4539C2.93189 34.8209 3.38989 34.179 3.99989 33.698C4.30589 33.457 4.64489 33.26 4.93889 33.005C5.18189 32.795 5.39089 32.5479 5.61889 32.3209C6.59389 31.3509 7.95289 30.696 8.53589 29.45C9.23489 29.109 9.87489 28.741 10.6049 28.471C11.1879 28.255 11.7869 28.085 12.3779 27.888C13.3839 27.553 14.3639 27.1409 15.3059 26.6559C15.9579 26.3199 16.6109 25.9329 17.0449 25.3419C17.6239 24.5519 17.7829 23.441 18.5779 22.868C18.8449 22.676 19.1649 22.562 19.4119 22.346C19.8109 21.999 19.9599 21.442 19.9849 20.914C20.0099 20.386 19.9349 19.8559 19.9789 19.3289C20.0459 18.5219 20.3889 17.768 20.7259 17.032C21.2899 15.802 22.1149 14.6529 23.1879 13.8279C23.9989 13.2039 24.9319 12.7629 25.8399 12.2909C27.0389 11.6679 28.2049 10.9829 29.3599 10.2809C29.5929 10.1389 29.8339 9.98895 29.9799 9.75895C30.1009 9.56895 30.1449 9.34195 30.2039 9.12495C30.3619 8.53795 30.6359 7.98295 31.0069 7.50195C31.5029 6.85895 32.1569 6.35895 32.8029 5.86695C33.8269 5.08795 34.8499 4.30795 35.8739 3.52895C36.3699 3.15195 36.8879 2.74395 37.1119 2.16295C37.1939 1.94895 37.2359 1.71295 37.3709 1.52795C37.6519 1.13595 37.9349 0.414951 39.6759 0.619951Z" fill="black"/>
<path d="M44.734 6.36804C44.291 7.91404 42.957 9.14604 42.773 10.744C42.57 12.501 43.864 14.126 45.394 15.016C45.562 15.113 45.783 15.202 45.936 15.084C46.031 15.01 46.061 14.883 46.108 14.771C46.321 14.259 46.966 14.035 47.508 14.149C48.05 14.262 48.501 14.635 48.885 15.035C49.269 15.435 49.615 15.878 50.065 16.201C51.138 16.971 52.576 16.921 53.839 17.305C54.337 17.101 54.634 16.499 54.634 15.961C54.634 15.423 54.388 14.911 54.063 14.481C53.738 14.052 53.336 13.689 52.964 13.3C52.598 12.917 52.26 12.506 51.955 12.072C51.764 11.8 51.576 11.51 51.294 11.333C50.82 11.036 50.166 11.144 49.728 11.492C49.29 11.84 49.043 12.382 48.93 12.93C48.526 12.676 48.432 12.091 48.026 11.841C47.904 11.766 47.762 11.727 47.642 11.65C47.341 11.458 47.23 11.074 46.988 10.813C46.802 10.612 46.541 10.488 46.371 10.274C46.08 9.90804 46.126 9.39004 46.074 8.92604C45.993 8.21304 45.636 7.53504 45.094 7.06504C44.865 6.86604 44.789 6.66604 44.734 6.36804Z" fill="black"/>
<path d="M53.5561 21.043C53.9301 20.984 54.3001 20.854 54.5921 20.613C54.8841 20.372 55.0901 20.011 55.0881 19.633C55.0881 19.519 55.0671 19.401 55.0051 19.305C54.8951 19.137 54.6831 19.073 54.4881 19.022C54.1071 18.921 53.7261 18.821 53.3451 18.72C53.0211 18.634 52.6971 18.549 52.3741 18.463C52.1451 18.403 51.9101 18.342 51.6751 18.371C51.4401 18.401 51.2041 18.543 51.1351 18.77C51.0541 19.037 51.2271 19.316 51.4301 19.507C51.8901 19.941 52.5391 20.159 52.9261 20.659C53.1021 20.887 53.2321 21.169 53.2921 21.451C53.2511 21.225 53.3301 21.078 53.5561 21.043Z" fill="black"/>
<path d="M53.6028 36.4679C53.8708 36.6909 54.2368 36.7669 54.5858 36.7509C55.0328 36.7299 55.4618 36.5739 55.9008 36.4879C56.7158 36.3289 57.5548 36.4149 58.3808 36.5009C58.4458 36.2919 58.3098 36.0649 58.1258 35.9469C57.9418 35.8299 57.7188 35.7949 57.5048 35.7499C57.0198 35.6489 56.5468 35.4869 56.1018 35.2689C55.6928 35.0689 55.2638 34.8129 54.8158 34.8939C54.3408 34.9799 53.8968 35.4369 53.4508 35.2499C53.3398 35.2039 53.2488 35.1209 53.1598 35.0409C52.6728 34.6009 52.1678 34.1679 51.5808 33.8749C51.4758 33.8229 51.3638 33.7739 51.2468 33.7809C51.1298 33.7879 51.0098 33.8699 50.9968 33.9859C50.9868 34.0749 51.0408 34.1589 51.0988 34.2269C51.5018 34.6989 52.1558 34.7939 52.6918 35.0439C52.9308 35.1549 53.2168 35.2859 53.2918 35.5509C53.3928 35.9109 53.2538 36.1769 53.6028 36.4679Z" fill="black"/>
<path d="M30.9401 35.525C31.6701 35.373 32.3431 34.962 32.8111 34.382C31.8951 34.501 30.9931 34.726 30.1281 35.052C29.9741 35.11 29.8071 35.172 29.6491 35.124C29.4691 35.07 29.3621 34.892 29.2171 34.773C28.9521 34.554 28.5781 34.542 28.2341 34.54C27.7991 34.537 27.3131 34.555 27.0071 34.865C26.7571 35.118 26.6771 35.526 26.3741 35.713C26.2131 35.812 26.0151 35.829 25.8361 35.89C25.6571 35.951 25.4751 36.09 25.4731 36.279C25.6491 36.523 25.9541 36.648 26.2541 36.675C26.9251 36.734 27.7401 36.52 28.3361 36.206C28.7401 35.994 29.1101 35.785 29.5651 35.699C30.0201 35.612 30.4871 35.619 30.9401 35.525Z" fill="black"/>
<path d="M37.4698 29.152C37.8088 28.986 38.1648 28.834 38.4328 28.57C38.5998 28.406 38.7248 28.205 38.8838 28.034C39.4238 27.453 40.2778 27.274 40.8838 26.762C41.2568 26.447 41.5238 26.015 41.9228 25.732C42.1578 25.565 42.4388 25.45 42.6188 25.226C42.7708 25.038 42.8338 24.794 42.8738 24.555C42.9898 23.863 42.9478 23.144 42.7508 22.47C42.6908 22.265 42.5868 22.035 42.3788 21.987C42.1438 21.932 41.9368 22.141 41.7848 22.328C41.3018 22.925 40.8188 23.521 40.3358 24.118C40.0268 24.5 39.7068 24.891 39.2788 25.133C39.0158 25.282 38.7178 25.37 38.4738 25.549C38.1218 25.808 37.9268 26.221 37.6998 26.595C37.4478 27.01 37.1418 27.393 36.7918 27.73C36.5948 27.92 36.3828 28.097 36.2018 28.303C35.9928 28.542 35.1848 29.913 35.6318 30.164C35.8358 30.279 36.3128 29.816 36.4658 29.718C36.7898 29.51 37.1248 29.321 37.4698 29.152Z" fill="black"/>
<path d="M48.1418 32.68C48.2388 32.797 48.3738 32.875 48.5078 32.946C48.6438 33.018 48.8108 33.086 48.9458 33.011C49.0678 32.944 49.1078 32.781 49.0758 32.645C49.0438 32.51 48.9558 32.396 48.8708 32.286C48.7018 32.07 48.5338 31.855 48.3648 31.639C48.3208 31.583 48.2738 31.524 48.2058 31.503C48.1458 31.484 48.0798 31.497 48.0168 31.496C47.8358 31.492 47.6668 31.35 47.6328 31.171C47.7698 31.256 47.9678 31.158 48.0188 31.005C48.0698 30.852 47.9998 30.679 47.8838 30.567C47.7678 30.455 47.6128 30.393 47.4598 30.343C47.2968 30.289 47.1298 30.244 46.9608 30.209C46.7658 30.168 46.5578 30.142 46.3728 30.216C46.1888 30.291 46.0448 30.5 46.1078 30.688C46.1718 30.88 46.3978 30.956 46.5938 31.005C46.8538 31.071 47.1138 31.137 47.3728 31.202C46.9498 31.505 46.3398 31.437 45.9678 31.085C46.1448 31.611 46.5068 31.806 47.0398 31.753C47.3558 31.722 47.5638 31.608 47.7798 31.903C47.9508 32.136 47.9538 32.454 48.1418 32.68Z" fill="black"/>
<path d="M50.2881 31.714C50.3891 31.794 50.4871 31.877 50.5971 31.943C50.7341 32.024 50.8861 32.075 51.0371 32.125C51.2841 32.207 51.5311 32.289 51.7781 32.371C51.8981 32.175 51.8381 31.908 51.6941 31.729C51.5501 31.55 51.3371 31.441 51.1271 31.348C50.8501 31.226 50.5551 31.115 50.3531 30.89C50.2921 30.822 50.2411 30.745 50.1671 30.691C49.9731 30.55 49.1551 30.664 49.1671 30.985C49.1721 31.113 50.1391 31.597 50.2881 31.714Z" fill="black"/>
<path d="M52.2241 28.631C52.5861 29.615 53.2901 31.234 54.0671 31.937C54.8451 32.641 55.8611 33.106 56.9101 33.118C57.1191 33.12 57.3381 33.103 57.5181 32.996C57.6981 32.889 57.8281 32.672 57.7731 32.47C57.7311 32.315 57.5971 32.204 57.4691 32.106C55.8091 30.823 54.0561 29.66 52.2271 28.631" fill="black"/>
<path d="M36.7729 9.832C36.2089 10.151 35.5299 10.317 35.1089 10.81C34.8469 11.117 34.7209 11.515 34.6009 11.901C34.5589 12.036 34.5169 12.175 34.5249 12.316C34.5339 12.454 34.5909 12.584 34.6569 12.706C35.0029 13.349 35.5869 13.824 36.1549 14.283C36.3299 14.424 36.5239 14.572 36.7479 14.571C36.9399 14.57 37.1149 14.457 37.2469 14.317C37.5129 14.034 37.6389 13.626 37.5779 13.242C37.4679 12.554 36.8069 11.948 36.9949 11.277C37.0989 10.908 37.4329 10.662 37.7059 10.393C37.9009 10.201 38.3299 9.645 38.0199 9.402C37.7199 9.166 37.0149 9.695 36.7729 9.832Z" fill="black"/>
<path d="M45.2081 33.725C44.9841 33.692 44.7481 33.715 44.5471 33.817C44.5101 33.836 44.4731 33.858 44.4461 33.889C44.4061 33.934 44.3891 33.995 44.3841 34.054C44.3701 34.236 44.4691 34.413 44.6081 34.531C44.7471 34.649 44.9221 34.716 45.0981 34.765C45.2681 34.813 45.4611 34.845 45.6141 34.756C45.7311 34.688 45.8021 34.559 45.8301 34.428C45.9371 33.933 45.6651 33.792 45.2081 33.725Z" fill="black"/>
<path d="M48.236 35.147C48.209 35.025 48.325 34.925 48.407 34.832C48.437 34.797 48.465 34.747 48.44 34.708C48.429 34.69 48.409 34.68 48.39 34.672C47.963 34.471 47.483 34.385 47.013 34.426C46.974 34.429 46.932 34.434 46.9 34.458C46.872 34.479 46.854 34.511 46.84 34.543C46.702 34.852 46.797 35.233 47.026 35.482C47.255 35.731 47.596 35.856 47.933 35.875C48.099 35.884 48.692 35.903 48.743 35.696C48.811 35.419 48.285 35.367 48.236 35.147Z" fill="black"/>
<path d="M67.6741 27.681C67.8061 27.858 67.9391 28.038 68.0191 28.243C68.1081 28.469 68.1291 28.716 68.1801 28.954C68.3211 29.612 68.7161 30.222 69.2891 30.574C69.8621 30.926 70.6111 30.999 71.2211 30.715C71.2711 30.692 71.3211 30.665 71.3551 30.623C71.3861 30.585 71.4021 30.536 71.4141 30.488C71.4871 30.194 71.4291 29.869 71.2581 29.619C71.0601 29.328 70.7351 29.154 70.4291 28.981C69.5951 28.51 68.7851 27.955 68.2091 27.19C68.0121 26.929 67.8421 26.642 67.5951 26.426C67.4081 26.262 66.7181 25.919 66.7511 26.421C66.7621 26.591 67.0811 26.886 67.1841 27.023C67.3481 27.242 67.5111 27.462 67.6741 27.681Z" fill="black"/>
<path d="M64.3179 33.235C64.3679 33.317 64.4139 33.413 64.3909 33.506C64.3699 33.592 64.2959 33.654 64.2219 33.705C63.3199 34.32 62.1009 34.018 61.0719 33.654C60.5759 33.478 60.0669 33.283 59.6909 32.915C59.0489 32.285 58.9569 31.175 59.4859 30.447C59.5899 30.304 59.7159 30.172 59.7809 30.007C59.8579 29.812 59.8399 29.592 59.7999 29.386C59.4719 27.714 57.7949 26.469 57.7399 24.766C57.7369 24.686 57.7419 24.597 57.7979 24.539C57.8619 24.473 57.9659 24.474 58.0569 24.48C58.9119 24.534 59.7819 24.591 60.5799 24.901C61.4149 25.225 62.1579 25.82 63.0469 25.932C63.3299 25.968 63.6199 25.953 63.8949 26.031C64.7119 26.263 65.0789 27.177 65.5219 27.901C65.9719 28.637 66.5939 29.252 67.0859 29.96C67.5779 30.668 67.9459 31.533 67.7829 32.38C67.1629 32.457 66.5179 32.309 65.9929 31.97C65.6509 31.749 65.3149 31.436 64.9089 31.467C64.5429 31.494 63.9879 31.912 63.7919 32.215C63.4729 32.71 64.0519 32.803 64.3179 33.235Z" fill="black"/>
</svg>
