<svg width="273" height="62" viewBox="0 0 273 62" fill="none" xmlns="http://www.w3.org/2000/svg">
<path fill-rule="evenodd" clip-rule="evenodd" d="M19.4328 62.0051H19.23C18.8661 62.0051 18.4294 61.7754 18.2786 61.4744L9.80454 47.0269C9.62258 46.7207 9.34184 46.241 9.15988 45.9399L0.685786 31.569C0.503827 31.2424 0.503827 30.7627 0.685786 30.482L9.15988 16.0091C9.34184 15.7335 9.62258 15.2538 9.80454 14.9272L18.2786 0.55626C18.4294 0.250062 18.8661 0 19.23 0H36.2042H37.4623H38.1538C46.7318 30.6861 13.9636 25.3175 19.4328 62.0051Z" fill="#007A5D"/>
<path fill-rule="evenodd" clip-rule="evenodd" d="M72.9287 30.482C73.0795 30.7627 73.0795 31.2424 72.9287 31.569L64.4546 45.9399C64.2467 46.241 63.9659 46.7207 63.784 47.0269L55.3359 61.4744C55.1539 61.7754 54.7172 62.0051 54.3585 62.0051H37.4623H36.2042H25.2346C25.4946 53.6306 29.4509 48.2364 36.5889 45.5112C39.0271 44.5518 39.1311 44.6539 41.6733 44.858C49.352 45.3377 52.123 43.2454 51.3276 39.1321C50.5841 37.7695 50.3294 36.6621 51.5095 35.8558C52.123 35.4781 52.227 34.9219 52.227 34.5442C52.3309 33.7634 51.6135 33.2582 50.6621 32.9826C51.8942 32.0487 52.4609 31.3904 52.4609 30.8648C52.5077 29.5022 50.3294 28.6703 50.3554 27.1036C50.4074 24.5571 53.4071 24.6847 53.4071 22.6689C53.4071 21.5563 52.4089 21.0766 51.5615 20.5C50.2514 19.5916 46.8878 16.4377 46.3991 14.9782C45.3177 11.8243 45.7284 10.0586 45.1409 7.56309C44.4703 4.81752 43.0614 2.36793 41.4914 0H54.3585C54.7172 0 55.1539 0.250062 55.3359 0.55626L63.784 14.9272C63.9659 15.2538 64.2467 15.7335 64.4286 16.0091L72.9287 30.482Z" fill="#007A5D"/>
<path d="M85.0525 44.3476H90.5373V22.2605H102.032L104.122 17.3562H85.0525V44.3476Z" fill="black"/>
<path d="M173.225 28.1242H159.832V17.3562H154.348V44.3476H159.832V32.86H173.225V44.3476H178.73V17.3562H173.225V28.1242Z" fill="black"/>
<path d="M188.057 35.8914V17.3562H182.572V44.3476H187.745L199.952 26.2564V44.3476H205.437V17.3562H200.258L188.057 35.8914Z" fill="black"/>
<path d="M207.958 22.0921H215.694V44.3476H221.199V22.0921H228.171L230.053 17.3562H207.958V22.0921Z" fill="black"/>
<path d="M125.692 30.9617C126.212 29.8033 126.471 28.5172 126.471 27.1393C126.471 25.7615 126.217 24.5163 125.692 23.3425C125.161 22.1789 124.423 21.1123 123.56 20.2652C122.671 19.3925 121.631 18.6985 120.378 18.1473C119.193 17.637 117.883 17.3818 116.485 17.3818H106.18V44.4191H111.66V22.4035H116.485C117.8 22.4035 118.949 22.8832 119.916 23.8273C120.883 24.7357 121.356 25.8176 121.356 27.1393C121.356 28.4305 120.867 29.5634 119.911 30.5024C118.954 31.4414 117.831 31.9007 116.485 31.9007H114.358L112.279 36.9479H116.485C117.847 36.9479 119.157 36.6825 120.373 36.1569C121.538 35.6925 122.609 34.9933 123.565 34.0849C124.475 33.1408 125.187 32.0896 125.692 30.9617Z" fill="black"/>
<path d="M135.076 17.3562L122.661 44.3476H128.291L130.371 39.8056H142.463L140.165 34.784H132.674L137.779 23.7098L143.035 35.1208L147.288 44.3476H152.892L140.508 17.3562H135.076Z" fill="black"/>
<path d="M232.023 44.3476H250.698V39.3259H237.503V32.7171H245.27L246.975 27.6904H237.503V22.383H250.698V17.3562H232.023V44.3476Z" fill="black"/>
<path d="M261.984 17.3562C260.581 17.3562 259.317 17.6063 258.116 18.1217C256.983 18.6116 255.948 19.2904 254.955 20.2192C254.035 21.1429 253.328 22.189 252.85 23.322C252.314 24.5161 252.044 25.792 252.044 27.1137C252.044 28.0578 252.195 29.0275 252.47 29.9256C252.756 30.8391 253.136 31.6659 253.604 32.3905C254.118 33.1458 254.721 33.8348 255.408 34.4319C256.042 34.9881 256.733 35.4525 257.466 35.8148L251.841 44.3476H257.955L262.852 36.8967H266.242L264.157 31.8751H261.984C260.627 31.8751 259.51 31.4107 258.563 30.4615C258.09 29.9716 257.758 29.4612 257.534 28.8948C257.3 28.3742 257.186 27.7925 257.186 27.1137C257.186 26.4146 257.295 25.843 257.539 25.302C257.763 24.7305 258.096 24.2304 258.558 23.7762C259.515 22.8371 260.638 22.383 261.984 22.383H266.856V44.3476H272.34V17.3562H261.984Z" fill="black"/>
<path d="M84.9849 51.5536V48.3589H86.0506C86.4094 48.3589 86.6901 48.4303 86.8929 48.5783C87.0956 48.7212 87.1996 48.9407 87.1996 49.2316C87.1996 49.3693 87.158 49.4969 87.0748 49.6092C86.9968 49.7215 86.8825 49.8082 86.7369 49.8644C86.9448 49.9001 87.106 49.9868 87.2204 50.1297C87.3348 50.2726 87.3867 50.441 87.3867 50.635C87.3867 50.9361 87.288 51.1657 87.0904 51.3188C86.8877 51.477 86.6121 51.5536 86.2638 51.5536H84.9849ZM85.5307 49.7062H86.1078C86.2794 49.7062 86.4094 49.6653 86.5081 49.5837C86.6069 49.5071 86.6537 49.4 86.6537 49.252C86.6537 49.0938 86.6017 48.9764 86.5029 48.8998C86.399 48.8233 86.2482 48.7876 86.0506 48.7876H85.5307V49.7062ZM85.5307 50.0991V51.1249H86.2638C86.4509 51.1249 86.5965 51.0841 86.6953 51.0024C86.7993 50.9156 86.8461 50.7932 86.8461 50.635C86.8461 50.4768 86.7993 50.3492 86.7005 50.2522C86.5965 50.1553 86.4561 50.1042 86.2794 50.0991H86.2482H85.5307Z" fill="black"/>
<path d="M94.3532 50.242C94.3532 50.635 94.2284 50.9565 93.9789 51.2117C93.7294 51.4719 93.407 51.5995 93.0067 51.5995C92.6168 51.5995 92.2997 51.4719 92.0553 51.2117C91.811 50.9565 91.6914 50.635 91.6914 50.242V49.6705C91.6914 49.2775 91.811 48.956 92.0553 48.7008C92.2997 48.4406 92.6168 48.313 93.0067 48.313C93.4018 48.313 93.7294 48.4406 93.9789 48.7008C94.2284 48.956 94.3532 49.2775 94.3532 49.6705V50.242ZM93.8073 49.6654C93.8073 49.4 93.7398 49.1805 93.5942 49.007C93.4486 48.8386 93.2511 48.7519 93.0067 48.7519C92.7676 48.7519 92.5752 48.8386 92.44 49.007C92.2997 49.1805 92.2321 49.4 92.2321 49.6654V50.242C92.2321 50.5125 92.2997 50.732 92.44 50.9055C92.5804 51.0739 92.7676 51.1606 93.0067 51.1606C93.2563 51.1606 93.4486 51.079 93.5942 50.9055C93.7398 50.732 93.8073 50.5125 93.8073 50.242V49.6654Z" fill="black"/>
<path d="M101.351 51.5536H100.81V48.7876H99.3493V51.5536H98.8086V48.3589H101.351V51.5536Z" fill="black"/>
<path d="M108.458 48.3589V51.5536H107.912V48.7876H106.856V49.8388C106.856 50.441 106.773 50.8748 106.602 51.1453C106.43 51.4158 106.16 51.5536 105.785 51.5536H105.676V51.1249H105.765C105.973 51.1249 106.113 51.033 106.196 50.8391C106.279 50.6452 106.316 50.3135 106.316 49.8388V48.3589H108.458Z" fill="black"/>
<path d="M115.575 50.242C115.575 50.635 115.45 50.9565 115.2 51.2117C114.951 51.4719 114.628 51.5995 114.228 51.5995C113.838 51.5995 113.521 51.4719 113.277 51.2117C113.032 50.9565 112.913 50.635 112.913 50.242V49.6705C112.913 49.2775 113.032 48.956 113.277 48.7008C113.521 48.4406 113.838 48.313 114.228 48.313C114.628 48.313 114.951 48.4406 115.2 48.7008C115.45 48.956 115.575 49.2775 115.575 49.6705V50.242ZM115.034 49.6654C115.034 49.4 114.961 49.1805 114.816 49.007C114.67 48.8386 114.478 48.7519 114.228 48.7519C113.989 48.7519 113.802 48.8386 113.661 49.007C113.526 49.1805 113.454 49.4 113.454 49.6654V50.242C113.454 50.5125 113.526 50.732 113.661 50.9055C113.802 51.0739 113.989 51.1606 114.228 51.1606C114.478 51.1606 114.675 51.079 114.816 50.9055C114.961 50.732 115.034 50.5125 115.034 50.242V49.6654Z" fill="black"/>
<path d="M120.571 48.3589V51.1249H121.787V48.3589H122.328V51.1249H123.545V48.3589H124.085V51.1402H124.527V52.3293H123.981V51.5535H120.025V48.3589H120.571Z" fill="black"/>
<path d="M130.678 50.1144H129.404V51.1249H130.906V51.5536H128.858V48.3589H130.891V48.7876H129.404V49.6857H130.678V50.1144Z" fill="black"/>
<path d="M137.8 51.5536H137.259V50.191H135.803V51.5536H135.258V48.3589H135.803V49.7623H137.259V48.3589H137.8V51.5536Z" fill="black"/>
<path d="M144.356 48.3589H144.896V51.5536H144.356V49.2622L144.34 49.2571L142.895 51.5536H142.354V48.3589H142.895V50.6452L142.91 50.6503L144.356 48.3589Z" fill="black"/>
<path d="M151.27 50.1144H149.996V51.1249H151.499V51.5536H149.45V48.3589H151.483V48.7876H149.996V49.6857H151.27V50.1144Z" fill="black"/>
<path d="M163.201 51.5536H162.655V48.7876H161.194V51.5536H160.654V48.3589H163.201V51.5536Z" fill="black"/>
<path d="M168.301 50.3441V51.5536H167.761V48.3589H169.003C169.362 48.3589 169.643 48.4507 169.851 48.6345C170.053 48.8131 170.152 49.0529 170.152 49.3489C170.152 49.65 170.053 49.8899 169.851 50.0736C169.643 50.2522 169.362 50.3441 169.003 50.3441H168.301ZM168.301 49.9154H169.003C169.206 49.9154 169.357 49.8593 169.461 49.7572C169.56 49.65 169.612 49.5173 169.612 49.354C169.612 49.1907 169.56 49.058 169.461 48.9509C169.357 48.8386 169.206 48.7876 169.003 48.7876H168.301V49.9154Z" fill="black"/>
<path d="M176.515 48.3589H177.061V51.5536H176.515V49.2622L176.505 49.2571L175.06 51.5536H174.519V48.3589H175.06V50.6452L175.075 50.6503L176.515 48.3589Z" fill="black"/>
<path d="M182.161 50.3441V51.5536H181.615V48.3589H182.863C183.222 48.3589 183.503 48.4507 183.705 48.6345C183.908 48.8131 184.012 49.0529 184.012 49.3489C184.012 49.65 183.908 49.8899 183.705 50.0736C183.503 50.2522 183.222 50.3441 182.863 50.3441H182.161ZM182.161 49.9154H182.863C183.066 49.9154 183.217 49.8593 183.316 49.7572C183.419 49.65 183.466 49.5173 183.466 49.354C183.466 49.1907 183.419 49.058 183.316 48.9509C183.217 48.8386 183.066 48.7876 182.863 48.7876H182.161V49.9154Z" fill="black"/>
<path d="M190.984 50.242C190.984 50.635 190.859 50.9565 190.61 51.2117C190.36 51.4719 190.033 51.5995 189.637 51.5995C189.247 51.5995 188.93 51.4719 188.686 51.2117C188.442 50.9565 188.317 50.635 188.317 50.242V49.6705C188.317 49.2775 188.442 48.956 188.686 48.7008C188.93 48.4406 189.247 48.313 189.637 48.313C190.033 48.313 190.36 48.4406 190.61 48.7008C190.859 48.956 190.984 49.2775 190.984 49.6705V50.242ZM190.438 49.6654C190.438 49.4 190.365 49.1805 190.225 49.007C190.079 48.8386 189.882 48.7519 189.637 48.7519C189.393 48.7519 189.206 48.8386 189.071 49.007C188.93 49.1805 188.863 49.4 188.863 49.6654V50.242C188.863 50.5125 188.93 50.732 189.071 50.9055C189.211 51.0739 189.398 51.1606 189.637 51.1606C189.887 51.1606 190.079 51.079 190.225 50.9055C190.37 50.732 190.438 50.5125 190.438 50.242V49.6654Z" fill="black"/>
<path d="M198.397 52.3395H197.857V51.5536H195.668V52.3395H195.127V51.1249H195.34C195.528 51.1249 195.663 51.0075 195.746 50.7676C195.834 50.5278 195.891 50.1604 195.912 49.6653L195.985 48.3589H197.976V51.1249H198.397V52.3395ZM196.458 49.6653C196.443 49.997 196.406 50.2828 196.349 50.5278C196.292 50.7727 196.214 50.9718 196.115 51.1249H197.435V48.7876H196.505L196.458 49.6653Z" fill="black"/>
<path d="M205.244 51.5536H204.704V50.191H203.248V51.5536H202.707V48.3589H203.248V49.7623H204.704V48.3589H205.244V51.5536Z" fill="black"/>
<path d="M212.362 50.242C212.362 50.635 212.237 50.9565 211.987 51.2117C211.738 51.4719 211.415 51.5995 211.015 51.5995C210.625 51.5995 210.313 51.4719 210.069 51.2117C209.824 50.9565 209.7 50.635 209.7 50.242V49.6705C209.7 49.2775 209.824 48.956 210.064 48.7008C210.308 48.4406 210.625 48.313 211.015 48.313C211.415 48.313 211.738 48.4406 211.987 48.7008C212.237 48.956 212.362 49.2775 212.362 49.6705V50.242ZM211.821 49.6654C211.821 49.4 211.748 49.1805 211.603 49.007C211.462 48.8386 211.265 48.7519 211.015 48.7519C210.776 48.7519 210.589 48.8386 210.448 49.007C210.313 49.1805 210.246 49.4 210.246 49.6654V50.242C210.246 50.5125 210.313 50.732 210.454 50.9055C210.589 51.0739 210.781 51.1606 211.015 51.1606C211.265 51.1606 211.462 51.079 211.608 50.9055C211.748 50.732 211.821 50.5125 211.821 50.242V49.6654Z" fill="black"/>
<path d="M218.813 48.3589H219.354V51.5536H218.813V49.2622L218.798 49.2571L217.358 51.5536H216.817V48.3589H217.358V50.6452L217.368 50.6503L218.813 48.3589ZM218.792 47.4199L218.798 47.4352C218.808 47.6138 218.746 47.7567 218.616 47.8741C218.486 47.9864 218.309 48.0425 218.091 48.0425C217.872 48.0425 217.696 47.9864 217.566 47.8741C217.436 47.7567 217.373 47.6138 217.384 47.4352L217.389 47.4199H217.789C217.789 47.5067 217.815 47.573 217.862 47.6292C217.914 47.6802 217.987 47.7108 218.091 47.7108C218.189 47.7108 218.267 47.6802 218.314 47.6292C218.366 47.573 218.387 47.5067 218.387 47.4199H218.792Z" fill="black"/>
<path d="M229.507 50.1706H229.242V51.5536H228.701V48.3589H229.242V49.7113H229.455L230.511 48.3589H231.15L231.155 48.3691L229.939 49.8695L231.254 51.5536H230.573L229.507 50.1706Z" fill="black"/>
<path d="M236.084 50.3441V51.5536H235.543V48.3589H236.786C237.144 48.3589 237.425 48.4507 237.633 48.6345C237.836 48.8131 237.935 49.0529 237.935 49.3489C237.935 49.65 237.836 49.8899 237.633 50.0736C237.425 50.2522 237.144 50.3441 236.786 50.3441H236.084ZM236.084 49.9154H236.786C236.989 49.9154 237.139 49.8593 237.243 49.7572C237.342 49.65 237.394 49.5173 237.394 49.354C237.394 49.1907 237.342 49.058 237.243 48.9509C237.139 48.8386 236.989 48.7876 236.786 48.7876H236.084V49.9154Z" fill="black"/>
<path d="M243.814 50.8085H242.66L242.411 51.5536H241.849L242.982 48.3589H243.497L244.62 51.5536H244.059L243.814 50.8085ZM242.811 50.3594H243.664L243.248 49.104H243.232L242.811 50.3594Z" fill="black"/>
<path d="M251.202 50.5074L251.207 50.5227C251.212 50.8442 251.108 51.1045 250.89 51.3035C250.672 51.4974 250.375 51.5995 250.001 51.5995C249.622 51.5995 249.315 51.4719 249.081 51.2219C248.847 50.9718 248.727 50.6503 248.727 50.2624V49.6552C248.727 49.2622 248.842 48.9458 249.076 48.6906C249.31 48.4406 249.611 48.313 249.985 48.313C250.37 48.313 250.672 48.41 250.89 48.5988C251.108 48.7927 251.218 49.053 251.207 49.3898V49.4H250.682C250.682 49.1857 250.62 49.0223 250.505 48.9101C250.386 48.7978 250.214 48.7417 249.985 48.7417C249.767 48.7417 249.59 48.8284 249.46 48.9968C249.33 49.1703 249.268 49.3847 249.268 49.6501V50.2624C249.268 50.5278 249.336 50.7422 249.466 50.9157C249.596 51.0892 249.772 51.1708 250.001 51.1708C250.225 51.1708 250.391 51.1147 250.505 51.0024C250.625 50.8902 250.682 50.7217 250.682 50.5074H251.202Z" fill="black"/>
<path d="M258.184 50.242C258.184 50.635 258.054 50.9565 257.81 51.2117C257.56 51.4719 257.232 51.5995 256.832 51.5995C256.447 51.5995 256.13 51.4719 255.886 51.2117C255.642 50.9565 255.517 50.635 255.517 50.242V49.6705C255.517 49.2775 255.642 48.956 255.881 48.7008C256.125 48.4406 256.442 48.313 256.832 48.313C257.232 48.313 257.555 48.4406 257.804 48.7008C258.054 48.956 258.184 49.2775 258.184 49.6705V50.242ZM257.638 49.6654C257.638 49.4 257.565 49.1805 257.42 49.007C257.279 48.8386 257.082 48.7519 256.832 48.7519C256.593 48.7519 256.406 48.8386 256.265 49.007C256.13 49.1805 256.063 49.4 256.063 49.6654V50.242C256.063 50.5125 256.13 50.732 256.271 50.9055C256.406 51.0739 256.598 51.1606 256.832 51.1606C257.082 51.1606 257.279 51.079 257.425 50.9055C257.565 50.732 257.638 50.5125 257.638 50.242V49.6654Z" fill="black"/>
<path d="M264.87 48.7876H263.861V51.5536H263.32V48.7876H262.327V48.3589H264.87V48.7876Z" fill="black"/>
<path d="M269.715 49.5429H270.406C270.765 49.5429 271.046 49.6347 271.254 49.8184C271.457 50.0022 271.561 50.242 271.561 50.5431C271.561 50.8391 271.457 51.0841 271.254 51.2729C271.046 51.4617 270.765 51.5536 270.406 51.5536H269.174V48.3589H269.715V49.5429ZM269.715 49.9715V51.1249H270.406C270.604 51.1249 270.76 51.0687 270.864 50.9565C270.968 50.8442 271.02 50.7013 271.02 50.538C271.02 50.3798 270.968 50.242 270.864 50.1348C270.76 50.0277 270.604 49.9715 270.406 49.9715H269.715ZM272.45 51.5536H271.904V48.3589H272.45V51.5536Z" fill="black"/>
</svg>
