<svg width="251" height="72" viewBox="0 0 251 72" fill="none" xmlns="http://www.w3.org/2000/svg">
<g clip-path="url(#clip0_1_77)">
<mask id="mask0_1_77" style="mask-type:luminance" maskUnits="userSpaceOnUse" x="0" y="0" width="251" height="72">
<path d="M251 0H0V72H251V0Z" fill="white"/>
</mask>
<g mask="url(#mask0_1_77)">
<path d="M48.9376 55.0984V27.3092V27.3035H48.9546C48.9546 24.785 49.9817 22.4922 51.641 20.8377C53.2833 19.1887 55.569 18.1666 58.0861 18.1666V18.1497H63.5717H72.0429L80.8922 33.4814L81.9476 35.3111L80.8922 37.1407L62.6462 68.7586L61.5739 70.6165H59.4631H22.971H20.8659L19.7936 68.7586L14.6127 59.7798H23.0839L25.0817 63.2414H57.358L73.4708 35.3111L67.8271 25.5247H58.0861V25.5134C57.6007 25.5134 57.1548 25.7167 56.8219 26.0499C56.4945 26.3774 56.297 26.8179 56.297 27.3035H56.3083V27.3092V55.0984H48.9376Z" fill="#00614D"/>
<path d="M22.971 0H59.4632H61.5739L62.6462 1.85788L69.9604 14.5299H61.4836L57.3581 7.37506H25.0818L8.96338 35.3111L16.7686 48.8358H36.7699H36.7755V48.8471C37.2496 48.8471 37.6898 48.6438 38.0228 48.3106H38.0397C38.3614 47.9831 38.5646 47.5369 38.5646 47.0569H38.5533V47.0513H38.5646V42.6296H30.5336V42.6409H30.5279V42.6296C27.9996 42.6296 25.7139 41.6019 24.0659 39.9586V39.9416C22.4236 38.2927 21.3964 36.0113 21.3964 33.4927H21.3851V33.4871V18.4038H28.7502V33.4871V33.4927H28.7389C28.7389 33.9727 28.9421 34.4188 29.2694 34.752L29.275 34.7407C29.608 35.0739 30.0539 35.2828 30.5279 35.2828V35.2715H30.5336V35.2828H38.5646V17.9689H45.907V47.0513H45.9183V47.0569H45.907C45.907 49.5699 44.8799 51.8569 43.2262 53.5172L43.2375 53.5228C41.5896 55.1661 39.3039 56.1939 36.7755 56.1939V56.2052H36.7699H12.6431V56.1656H12.5245L1.54756 37.1407L0.492188 35.3111L1.54756 33.4814L19.7936 1.85788L20.8659 0H22.971Z" fill="#E05717"/>
<path d="M94.6967 42.0816L94.708 42.076C94.8942 42.0026 95.0861 41.9348 95.2893 41.8784C95.4812 41.8275 95.6843 41.7767 95.8932 41.7428C96.3164 41.6638 96.751 41.6242 97.2025 41.6242H110.098H110.448V41.98V47.7118V48.0675L110.098 48.0619H97.8572V71.5028V71.8586H97.5073H91.4798H91.1299V71.5028V47.9546V47.9376C91.1299 47.5141 91.1637 47.1075 91.2202 46.7179L91.2484 46.5315C91.3048 46.2096 91.3838 45.8934 91.4798 45.5885V45.5828C91.5532 45.3626 91.6378 45.148 91.7338 44.9334C91.8297 44.7245 91.9369 44.5212 92.0554 44.3292C92.665 43.324 93.5736 42.5278 94.6967 42.0816ZM164.193 71.2656L164.199 71.2939L164.25 71.6948H163.849H157.409H157.167L157.082 71.4689L154.526 64.9917H144.531L142.013 71.4689L141.929 71.6948H141.686H135.269H134.829L134.931 71.2656C134.953 71.1527 134.987 71.0341 135.027 70.9155C135.06 70.7913 135.1 70.684 135.139 70.571V70.5597L145.202 44.2275V44.2219C145.298 43.9791 145.394 43.7419 145.501 43.516C145.614 43.2788 145.744 43.0473 145.896 42.8214L145.902 42.8158C145.975 42.7028 146.06 42.5955 146.15 42.4826C146.241 42.3753 146.331 42.2736 146.427 42.1776C146.923 41.6751 147.527 41.2911 148.21 41.0708C148.289 41.0426 148.357 41.02 148.425 41.0031C148.487 40.9861 148.56 40.9692 148.639 40.9522C148.701 40.9409 148.775 40.924 148.859 40.9127C149.108 40.8675 149.367 40.8506 149.627 40.8506C149.7 40.8506 149.768 40.8562 149.83 40.8619C149.892 40.8619 149.954 40.8675 150.011 40.8732C150.073 40.8788 150.129 40.8901 150.186 40.8958H150.191C150.445 40.9353 150.705 40.9974 150.959 41.0878C151.738 41.3588 152.341 41.7993 152.821 42.3584C153.29 42.9061 153.634 43.5555 153.905 44.2614L164.171 71.1866L164.188 71.2205L164.193 71.2656ZM149.553 51.4445L146.901 58.5372H152.172L149.553 51.4445ZM119.868 41.6242H127.503H127.509V41.6299C128.988 41.6299 130.438 41.8671 131.77 42.3809C131.99 42.46 132.21 42.556 132.419 42.652C133.508 43.1602 134.513 43.8661 135.382 44.7922L135.416 44.8318H135.422C135.693 45.1198 135.941 45.4303 136.167 45.7409C136.398 46.0628 136.607 46.3903 136.793 46.7292C137.747 48.4572 138.159 50.4393 138.08 52.4214L138.074 52.4722C138.063 52.8167 138.029 53.1555 137.984 53.4887C137.939 53.8332 137.877 54.1663 137.803 54.4826C137.408 56.1541 136.618 57.6958 135.433 58.972L135.416 58.9889L135.405 59.0002L135.399 59.0059L135.393 59.0172L135.055 59.3899L135.043 59.3673C134.852 59.548 134.654 59.723 134.451 59.8868C134.129 60.1466 133.796 60.3781 133.452 60.587C131.691 61.6713 129.62 62.1569 127.503 62.1569H120.076V71.5028V71.8586H119.721H113.699H113.343V71.5028V47.6609V47.6496H113.349C113.349 47.0849 113.411 46.5485 113.541 46.0459C113.558 45.9838 113.586 45.8991 113.614 45.7974C113.739 45.3795 113.913 44.9729 114.134 44.5889V44.5833C114.19 44.4873 114.252 44.3856 114.32 44.2784V44.2727C114.382 44.1824 114.455 44.0807 114.529 43.9791C114.901 43.4821 115.353 43.0304 115.855 42.6746H115.861C116.476 42.2398 117.13 41.9744 117.813 41.8219C118.485 41.6694 119.179 41.6242 119.868 41.6242ZM120.076 55.708H127.216H127.221C127.893 55.708 128.553 55.612 129.151 55.3748C129.242 55.3353 129.338 55.2958 129.428 55.2449C129.891 55.0191 130.308 54.6915 130.636 54.2398L130.647 54.2285C130.749 54.0873 130.839 53.9461 130.912 53.7936C130.991 53.6412 131.053 53.4774 131.11 53.3136C131.398 52.444 131.392 51.4388 131.138 50.5974V50.5918L131.132 50.5861C131.053 50.3263 130.952 50.0948 130.833 49.8802C130.715 49.6713 130.574 49.4793 130.416 49.3099C129.592 48.4176 128.299 48.0675 126.962 48.0675H120.184V48.0845L120.076 48.0788V55.708ZM166.744 71.2317V41.9292V41.5791H167.094H173.116H173.466V41.9292V52.5795H185.515V41.9292V41.5791H185.865H191.887H192.242V41.9292V71.2317V71.5819H191.887H185.865H185.515V71.2317V59.0228H173.466V71.2317V71.5819H173.116H167.094H166.744V71.2317ZM224.925 44.1767V71.356V71.7061H224.575H218.514H218.164V71.356V52.7998L205.511 70.379L205.488 70.4073V70.4129C205.403 70.5259 205.302 70.6445 205.183 70.7517C205.07 70.8647 204.946 70.972 204.805 71.0793C204.105 71.6045 203.084 72.0336 202.034 71.9997H202.029L201.966 71.9941H201.961C201.786 71.9885 201.594 71.9546 201.396 71.9094C201.199 71.8642 201.001 71.7965 200.809 71.7174C199.799 71.2882 198.851 70.3734 198.851 68.8995V41.9405V41.5904H199.201H205.228H205.578V41.9405V60.0054L217.865 42.9739H217.87C218.181 42.5504 218.627 42.0082 219.287 41.5904C219.953 41.1668 220.828 40.8788 221.979 40.9974H222.002C222.267 41.0256 222.509 41.0821 222.735 41.1555C222.967 41.2289 223.181 41.3249 223.379 41.4435C224.383 42.0365 224.925 43.1094 224.925 44.1767ZM228.435 41.596H250.158H250.508V41.9461V47.6892V48.0393H250.158H242.697V71.356V71.7061H242.341H236.314H235.964V71.356V48.0393H228.435H228.085V47.6892V41.9461V41.596H228.435Z" fill="#00614D"/>
<path d="M95.0354 31.1096L89.7585 18.59H92.9416L96.6608 27.4051L100.6 18.607H103.811L97.1123 33.7016C96.2149 35.8587 95.0241 36.5364 92.7836 36.5364H91.7V33.8089H92.6255C93.6753 33.8089 93.9687 33.6338 94.3807 32.6569L95.0354 31.1096ZM233.266 16.4329H238.588V17.5849H233.266V16.4329ZM243.239 19.6178V36.1185H240.332V23.311L231.319 35.7063C230.462 36.8865 228.362 36.3274 228.362 34.8818V18.59H231.269V31.471L240.332 19.0192C241.292 17.7034 243.239 18.3811 243.239 19.6178ZM159.351 36.158H164.114C165.503 36.158 166.885 35.7853 167.952 34.8874C170.469 32.7811 170.582 28.5797 168.166 26.3547C167.004 25.2818 165.491 24.9091 163.956 24.9091H159.046V18.6522H156.145V32.9731C156.145 34.91 157.393 36.158 159.351 36.158ZM159.046 27.6423H163.917C164.718 27.6423 165.531 27.8399 166.129 28.399C167.263 29.4663 167.258 31.5331 166.152 32.623C165.553 33.2103 164.741 33.4249 163.917 33.4249H159.046V27.6423ZM223.294 19.6178V36.1185H220.382V23.311L211.375 35.7063C210.511 36.8865 208.417 36.3274 208.417 34.8818V18.59H211.324V31.471L220.382 19.0192C221.347 17.7034 223.294 18.3811 223.294 19.6178ZM197.22 25.0559L203.344 18.59H199.365L192.88 25.3609V18.59H189.974V36.1185H192.88V29.2517L195.109 27.0719L202.452 36.1185H206.171L197.22 25.0559ZM175.368 31.6743C175.893 32.4479 176.638 33.0804 177.507 33.4418C179.014 34.063 181.09 34.0404 182.535 33.2442C183.438 32.7416 184.07 31.9566 184.437 31.0023H187.536C187.141 33.3684 184.985 35.3957 182.761 36.1129C180.741 36.7566 178.269 36.7114 176.305 35.8926C175.261 35.4522 174.358 34.7971 173.59 33.9218C172.947 33.1933 172.439 32.3463 172.072 31.3863C170.881 28.3143 171.118 24.7002 173.043 21.9613C173.889 20.7472 175.04 19.7307 176.395 19.1209C178.336 18.2569 180.757 18.2343 182.784 18.8385C184.403 19.3242 185.78 20.3011 186.633 21.7806C187.005 22.43 187.276 23.1642 187.434 23.9717H187.428L187.434 23.9773H184.454C184.025 22.5825 182.959 21.662 181.576 21.3176C180.317 21.0013 178.748 21.0352 177.558 21.5547C176.084 22.2042 175.063 23.5482 174.578 25.0503C173.883 27.1905 174.092 29.7825 175.368 31.6743ZM142.036 28.5402C142.036 29.5679 142.014 30.7651 141.951 31.55C141.76 34.0009 140.687 36.4347 137.442 36.3557C137.391 36.3557 136.545 36.35 136.494 36.35C136.494 35.5369 136.494 34.718 136.494 33.9049C136.539 33.9049 137.38 33.9049 137.425 33.9049C138.864 33.8484 139.271 32.6794 139.4 31.2507C139.479 30.3698 139.417 29.4267 139.417 28.6362V21.4023C139.417 19.471 140.219 18.4884 142.341 18.4997L148.927 18.5336C151.139 18.5336 151.969 19.4032 151.969 21.5604V36.1185L149.062 36.1129V21.2385L142.036 21.2272V28.5402ZM126.984 22.4526L124.541 28.975H129.389L126.984 22.4526ZM118.745 36.1185L124.857 20.047C125.043 19.55 125.28 19.0587 125.703 18.7256C126.448 18.1383 127.487 18.1439 128.226 18.7143C128.689 19.0644 128.915 19.567 129.118 20.0922L135.331 36.1185H132.171L130.382 31.7138H123.547L121.871 36.1185H118.745ZM109.308 18.6522H114.072V18.6578C115.46 18.6578 116.843 19.0305 117.915 19.9284C120.426 22.0347 120.539 26.2305 118.124 28.4611C116.961 29.534 115.449 29.9067 113.914 29.9067H109.004V36.158H106.103V21.8427C106.103 19.9058 107.35 18.6522 109.308 18.6522ZM109.004 27.1736H113.874C114.675 27.1736 115.488 26.9759 116.086 26.4169C117.221 25.3496 117.215 23.2827 116.109 22.1929C115.511 21.6056 114.698 21.391 113.874 21.391H109.004V27.1736Z" fill="#E05717"/>
<path d="M48.9376 55.0984V27.3092V27.3035H48.9546C48.9546 24.785 49.9817 22.4922 51.641 20.8377C53.2833 19.1887 55.569 18.1666 58.0861 18.1666V18.1497H63.5717H72.0429L80.8922 33.4814L81.9476 35.3111L80.8922 37.1407L62.6462 68.7586L61.5739 70.6165H59.4631H22.971H20.8659L19.7936 68.7586L14.6127 59.7798H23.0839L25.0817 63.2414H57.358L73.4708 35.3111L67.8271 25.5247H58.0861V25.5134C57.6007 25.5134 57.1548 25.7167 56.8219 26.0499C56.4945 26.3774 56.297 26.8179 56.297 27.3035H56.3083V27.3092V55.0984H48.9376Z" fill="#00614D"/>
<path d="M22.971 0H59.4632H61.5739L62.6462 1.85788L69.9604 14.5299H61.4836L57.3581 7.37506H25.0818L8.96338 35.3111L16.7686 48.8358H36.7699H36.7755V48.8471C37.2496 48.8471 37.6898 48.6438 38.0228 48.3106H38.0397C38.3614 47.9831 38.5646 47.5369 38.5646 47.0569H38.5533V47.0513H38.5646V42.6296H30.5336V42.6409H30.5279V42.6296C27.9996 42.6296 25.7139 41.6019 24.0659 39.9586V39.9416C22.4236 38.2927 21.3964 36.0113 21.3964 33.4927H21.3851V33.4871V18.4038H28.7502V33.4871V33.4927H28.7389C28.7389 33.9727 28.9421 34.4188 29.2694 34.752L29.275 34.7407C29.608 35.0739 30.0539 35.2828 30.5279 35.2828V35.2715H30.5336V35.2828H38.5646V17.9689H45.907V47.0513H45.9183V47.0569H45.907C45.907 49.5699 44.8799 51.8569 43.2262 53.5172L43.2375 53.5228C41.5896 55.1661 39.3039 56.1939 36.7755 56.1939V56.2052H36.7699H12.6431V56.1656H12.5245L1.54756 37.1407L0.492188 35.3111L1.54756 33.4814L19.7936 1.85788L20.8659 0H22.971Z" fill="#E05717"/>
<path d="M94.6967 42.0816L94.708 42.076C94.8942 42.0026 95.0861 41.9348 95.2893 41.8784C95.4812 41.8275 95.6843 41.7767 95.8932 41.7428C96.3164 41.6638 96.751 41.6242 97.2025 41.6242H110.098H110.448V41.98V47.7118V48.0675L110.098 48.0619H97.8572V71.5028V71.8586H97.5073H91.4798H91.1299V71.5028V47.9546V47.9376C91.1299 47.5141 91.1637 47.1075 91.2202 46.7179L91.2484 46.5315C91.3048 46.2096 91.3838 45.8934 91.4798 45.5885V45.5828C91.5532 45.3626 91.6378 45.148 91.7338 44.9334C91.8297 44.7245 91.9369 44.5212 92.0554 44.3292C92.665 43.324 93.5736 42.5278 94.6967 42.0816ZM164.193 71.2656L164.199 71.2939L164.25 71.6948H163.849H157.409H157.167L157.082 71.4689L154.526 64.9917H144.531L142.013 71.4689L141.929 71.6948H141.686H135.269H134.829L134.931 71.2656C134.953 71.1527 134.987 71.0341 135.027 70.9155C135.06 70.7913 135.1 70.684 135.139 70.571V70.5597L145.202 44.2275V44.2219C145.298 43.9791 145.394 43.7419 145.501 43.516C145.614 43.2788 145.744 43.0473 145.896 42.8214L145.902 42.8158C145.975 42.7028 146.06 42.5955 146.15 42.4826C146.241 42.3753 146.331 42.2736 146.427 42.1776C146.923 41.6751 147.527 41.2911 148.21 41.0708C148.289 41.0426 148.357 41.02 148.425 41.0031C148.487 40.9861 148.56 40.9692 148.639 40.9522C148.701 40.9409 148.775 40.924 148.859 40.9127C149.108 40.8675 149.367 40.8506 149.627 40.8506C149.7 40.8506 149.768 40.8562 149.83 40.8619C149.892 40.8619 149.954 40.8675 150.011 40.8732C150.073 40.8788 150.129 40.8901 150.186 40.8958H150.191C150.445 40.9353 150.705 40.9974 150.959 41.0878C151.738 41.3588 152.341 41.7993 152.821 42.3584C153.29 42.9061 153.634 43.5555 153.905 44.2614L164.171 71.1866L164.188 71.2205L164.193 71.2656ZM149.553 51.4445L146.901 58.5372H152.172L149.553 51.4445ZM119.868 41.6242H127.503H127.509V41.6299C128.988 41.6299 130.438 41.8671 131.77 42.3809C131.99 42.46 132.21 42.556 132.419 42.652C133.508 43.1602 134.513 43.8661 135.382 44.7922L135.416 44.8318H135.422C135.693 45.1198 135.941 45.4303 136.167 45.7409C136.398 46.0628 136.607 46.3903 136.793 46.7292C137.747 48.4572 138.159 50.4393 138.08 52.4214L138.074 52.4722C138.063 52.8167 138.029 53.1555 137.984 53.4887C137.939 53.8332 137.877 54.1663 137.803 54.4826C137.408 56.1541 136.618 57.6958 135.433 58.972L135.416 58.9889L135.405 59.0002L135.399 59.0059L135.393 59.0172L135.055 59.3899L135.043 59.3673C134.852 59.548 134.654 59.723 134.451 59.8868C134.129 60.1466 133.796 60.3781 133.452 60.587C131.691 61.6713 129.62 62.1569 127.503 62.1569H120.076V71.5028V71.8586H119.721H113.699H113.343V71.5028V47.6609V47.6496H113.349C113.349 47.0849 113.411 46.5485 113.541 46.0459C113.558 45.9838 113.586 45.8991 113.614 45.7974C113.739 45.3795 113.913 44.9729 114.134 44.5889V44.5833C114.19 44.4873 114.252 44.3856 114.32 44.2784V44.2727C114.382 44.1824 114.455 44.0807 114.529 43.9791C114.901 43.4821 115.353 43.0304 115.855 42.6746H115.861C116.476 42.2398 117.13 41.9744 117.813 41.8219C118.485 41.6694 119.179 41.6242 119.868 41.6242ZM120.076 55.708H127.216H127.221C127.893 55.708 128.553 55.612 129.151 55.3748C129.242 55.3353 129.338 55.2958 129.428 55.2449C129.891 55.0191 130.308 54.6915 130.636 54.2398L130.647 54.2285C130.749 54.0873 130.839 53.9461 130.912 53.7936C130.991 53.6412 131.053 53.4774 131.11 53.3136C131.398 52.444 131.392 51.4388 131.138 50.5974V50.5918L131.132 50.5861C131.053 50.3263 130.952 50.0948 130.833 49.8802C130.715 49.6713 130.574 49.4793 130.416 49.3099C129.592 48.4176 128.299 48.0675 126.962 48.0675H120.184V48.0845L120.076 48.0788V55.708ZM166.744 71.2317V41.9292V41.5791H167.094H173.116H173.466V41.9292V52.5795H185.515V41.9292V41.5791H185.865H191.887H192.242V41.9292V71.2317V71.5819H191.887H185.865H185.515V71.2317V59.0228H173.466V71.2317V71.5819H173.116H167.094H166.744V71.2317ZM224.925 44.1767V71.356V71.7061H224.575H218.514H218.164V71.356V52.7998L205.511 70.379L205.488 70.4073V70.4129C205.403 70.5259 205.302 70.6445 205.183 70.7517C205.07 70.8647 204.946 70.972 204.805 71.0793C204.105 71.6045 203.084 72.0336 202.034 71.9997H202.029L201.966 71.9941H201.961C201.786 71.9885 201.594 71.9546 201.396 71.9094C201.199 71.8642 201.001 71.7965 200.809 71.7174C199.799 71.2882 198.851 70.3734 198.851 68.8995V41.9405V41.5904H199.201H205.228H205.578V41.9405V60.0054L217.865 42.9739H217.87C218.181 42.5504 218.627 42.0082 219.287 41.5904C219.953 41.1668 220.828 40.8788 221.979 40.9974H222.002C222.267 41.0256 222.509 41.0821 222.735 41.1555C222.967 41.2289 223.181 41.3249 223.379 41.4435C224.383 42.0365 224.925 43.1094 224.925 44.1767ZM228.435 41.596H250.158H250.508V41.9461V47.6892V48.0393H250.158H242.697V71.356V71.7061H242.341H236.314H235.964V71.356V48.0393H228.435H228.085V47.6892V41.9461V41.596H228.435Z" fill="#00614D"/>
<path d="M95.0354 31.1096L89.7585 18.59H92.9416L96.6608 27.4051L100.6 18.607H103.811L97.1123 33.7016C96.2149 35.8587 95.0241 36.5364 92.7836 36.5364H91.7V33.8089H92.6255C93.6753 33.8089 93.9687 33.6338 94.3807 32.6569L95.0354 31.1096ZM233.266 16.4329H238.588V17.5849H233.266V16.4329ZM243.239 19.6178V36.1185H240.332V23.311L231.319 35.7063C230.462 36.8865 228.362 36.3274 228.362 34.8818V18.59H231.269V31.471L240.332 19.0192C241.292 17.7034 243.239 18.3811 243.239 19.6178ZM159.351 36.158H164.114C165.503 36.158 166.885 35.7853 167.952 34.8874C170.469 32.7811 170.582 28.5797 168.166 26.3547C167.004 25.2818 165.491 24.9091 163.956 24.9091H159.046V18.6522H156.145V32.9731C156.145 34.91 157.393 36.158 159.351 36.158ZM159.046 27.6423H163.917C164.718 27.6423 165.531 27.8399 166.129 28.399C167.263 29.4663 167.258 31.5331 166.152 32.623C165.553 33.2103 164.741 33.4249 163.917 33.4249H159.046V27.6423ZM223.294 19.6178V36.1185H220.382V23.311L211.375 35.7063C210.511 36.8865 208.417 36.3274 208.417 34.8818V18.59H211.324V31.471L220.382 19.0192C221.347 17.7034 223.294 18.3811 223.294 19.6178ZM197.22 25.0559L203.344 18.59H199.365L192.88 25.3609V18.59H189.974V36.1185H192.88V29.2517L195.109 27.0719L202.452 36.1185H206.171L197.22 25.0559ZM175.368 31.6743C175.893 32.4479 176.638 33.0804 177.507 33.4418C179.014 34.063 181.09 34.0404 182.535 33.2442C183.438 32.7416 184.07 31.9566 184.437 31.0023H187.536C187.141 33.3684 184.985 35.3957 182.761 36.1129C180.741 36.7566 178.269 36.7114 176.305 35.8926C175.261 35.4522 174.358 34.7971 173.59 33.9218C172.947 33.1933 172.439 32.3463 172.072 31.3863C170.881 28.3143 171.118 24.7002 173.043 21.9613C173.889 20.7472 175.04 19.7307 176.395 19.1209C178.336 18.2569 180.757 18.2343 182.784 18.8385C184.403 19.3242 185.78 20.3011 186.633 21.7806C187.005 22.43 187.276 23.1642 187.434 23.9717H187.428L187.434 23.9773H184.454C184.025 22.5825 182.959 21.662 181.576 21.3176C180.317 21.0013 178.748 21.0352 177.558 21.5547C176.084 22.2042 175.063 23.5482 174.578 25.0503C173.883 27.1905 174.092 29.7825 175.368 31.6743ZM142.036 28.5402C142.036 29.5679 142.014 30.7651 141.951 31.55C141.76 34.0009 140.687 36.4347 137.442 36.3557C137.391 36.3557 136.545 36.35 136.494 36.35C136.494 35.5369 136.494 34.718 136.494 33.9049C136.539 33.9049 137.38 33.9049 137.425 33.9049C138.864 33.8484 139.271 32.6794 139.4 31.2507C139.479 30.3698 139.417 29.4267 139.417 28.6362V21.4023C139.417 19.471 140.219 18.4884 142.341 18.4997L148.927 18.5336C151.139 18.5336 151.969 19.4032 151.969 21.5604V36.1185L149.062 36.1129V21.2385L142.036 21.2272V28.5402ZM126.984 22.4526L124.541 28.975H129.389L126.984 22.4526ZM118.745 36.1185L124.857 20.047C125.043 19.55 125.28 19.0587 125.703 18.7256C126.448 18.1383 127.487 18.1439 128.226 18.7143C128.689 19.0644 128.915 19.567 129.118 20.0922L135.331 36.1185H132.171L130.382 31.7138H123.547L121.871 36.1185H118.745ZM109.308 18.6522H114.072V18.6578C115.46 18.6578 116.843 19.0305 117.915 19.9284C120.426 22.0347 120.539 26.2305 118.124 28.4611C116.961 29.534 115.449 29.9067 113.914 29.9067H109.004V36.158H106.103V21.8427C106.103 19.9058 107.35 18.6522 109.308 18.6522ZM109.004 27.1736H113.874C114.675 27.1736 115.488 26.9759 116.086 26.4169C117.221 25.3496 117.215 23.2827 116.109 22.1929C115.511 21.6056 114.698 21.391 113.874 21.391H109.004V27.1736Z" fill="#E05717"/>
</g>
</g>
<defs>
<clipPath id="clip0_1_77">
<rect width="251" height="72" fill="white"/>
</clipPath>
</defs>
</svg>
